<svg width="400" height="400" viewBox="0 0 400 400" fill="none" xmlns="http://www.w3.org/2000/svg">
<path d="M0 16C0 7.16345 7.16344 0 16 0H384C392.837 0 400 7.16344 400 16V384C400 392.837 392.837 400 384 400H16C7.16345 400 0 392.837 0 384V16Z" fill="#ECE1CD"/>
<g clip-path="url(#clip0_395_624)">
<path d="M186.531 79.365C185.565 83.1146 185.65 82.3935 185.139 85.3066C183.548 94.3633 185.253 102.584 191.872 109.275C197.525 114.986 203.263 120.639 208.973 126.264C212.269 129.523 215.564 132.753 217.865 136.878C220.592 141.781 222.098 146.944 221.047 152.655C220.706 154.443 219.967 156.087 219.2 157.991C220.024 157.674 220.393 157.183 220.791 156.722C222.24 154.991 223.546 153.174 224.683 151.242C228.773 144.204 230.648 136.791 228.291 128.715C226.586 122.831 222.95 118.216 218.547 114.15C211.899 108.006 205.167 101.949 198.69 95.6324C193.917 90.9887 190.849 85.3066 190.139 78.4997C190.139 78.0959 190.139 77.6921 190.139 77.2883C190.196 75.2116 190.707 73.2214 191.247 70.9717C190.366 71.4909 190.054 72.0966 189.713 72.6734C189.713 72.6734 187.724 75.9615 186.588 79.3361L186.531 79.365Z" fill="#C00002"/>
<path d="M202.327 252.97C206.645 244.173 205.082 235.924 200.196 227.963C198.151 224.646 195.509 221.82 192.867 218.964C186.731 212.302 180.68 205.523 174.544 198.861C171.561 195.63 170.084 191.823 169.771 187.497C169.43 182.564 170.169 177.805 172.47 173.335C173.55 171.258 174.487 169.095 175.481 166.989C175.936 167.047 175.822 167.364 175.822 167.595C175.538 174.2 178.265 179.738 181.703 185.045C184.714 189.689 188.805 193.294 192.526 197.245C196.986 201.947 201.531 206.533 205.991 211.205C215.139 220.781 216.218 232.347 209.116 244.606C207.525 247.346 205.65 249.884 203.52 252.249C203.207 252.595 202.98 253.143 202.298 252.999L202.327 252.97Z" fill="#00802F"/>
<path d="M195.366 155.394C193.917 152.395 193.974 149.251 194.571 146.078C195.65 140.338 197.98 135.089 200.849 129.695C200.934 131.541 200.906 133.099 201.133 134.627C202.014 140.511 204.997 145.069 209.684 148.587C213.292 151.27 215.99 154.673 216.899 159.23C217.382 161.682 217.155 164.076 215.763 166.326C213.377 170.191 211.133 174.142 208.832 178.036C209.116 174.258 207.638 171.027 205.792 167.912C202.98 163.182 199.201 159.259 195.309 155.423L195.366 155.394Z" fill="#00802F"/>
<path d="M195.367 155.395C199.259 159.202 203.009 163.125 205.85 167.884C207.696 170.999 209.145 174.229 208.89 178.008C208.123 179.017 207.867 177.863 207.583 177.604C203.748 174.056 199.515 171.143 194.742 169.037C188.862 166.442 182.754 165.172 176.277 165.634C180.198 157.125 186.845 153.981 194.345 155.25C194.686 155.308 195.055 155.366 195.396 155.424L195.367 155.395Z" fill="#0F3A1F"/>
<path d="M236.018 257.902C232.126 257.902 229.257 259.171 227.382 261.738C225.848 263.902 225.081 266.728 225.081 270.218V272.064C225.081 275.9 223.206 277.804 219.542 277.804H218.689V277.689H156.277V256.662L150.908 258.277V280.948C150.908 285.765 148.153 288.735 143.579 288.735C140.369 288.735 137.557 287.986 135 286.572L137.528 291.966C139.176 293.004 141.136 293.523 143.551 293.523C150.823 293.523 155.454 289.168 156.192 282.534H219.883C223.604 282.534 226.36 281.496 228.178 279.506C230.138 281.496 232.751 282.534 236.018 282.534C239.853 282.534 242.723 281.207 244.597 278.64C246.131 276.535 246.898 273.708 246.898 270.276C246.898 266.844 246.103 263.988 244.597 261.796C242.723 259.229 239.853 257.96 236.018 257.96V257.902ZM236.018 277.833C232.297 277.833 230.422 275.323 230.422 270.218C230.422 265.113 232.297 262.546 236.018 262.546C239.74 262.546 241.558 265.113 241.558 270.218C241.558 275.323 239.683 277.833 236.018 277.833Z" fill="black"/>
<path d="M261.501 239.01C260.421 239.991 259.484 240.51 258.575 240.51C257.95 240.51 256.984 240.222 255.705 239.645C254.399 239.01 253.234 238.722 252.154 238.722C250.62 238.722 248.831 239.529 246.729 241.116L249.2 242.904C250.223 241.923 251.331 241.404 252.524 241.404C253.035 241.404 253.944 241.693 255.166 242.327C256.416 242.904 257.523 243.192 258.546 243.192C260.08 243.192 261.87 242.385 263.972 240.856L261.501 239.01Z" fill="black"/>
<path d="M251.756 282.476H257.125V245.528L251.756 247.259V282.476Z" fill="black"/>
<path d="M160.539 325.048C158.863 326.491 157.272 327.5 155.709 328.106C154.175 328.711 152.499 329 150.738 329C147.812 329 145.568 328.279 144.005 326.837C142.443 325.395 141.647 323.549 141.647 321.27C141.647 319.943 141.932 318.732 142.528 317.636C143.125 316.54 143.892 315.674 144.858 315.011C145.823 314.348 146.903 313.857 148.096 313.511C148.977 313.281 150.312 313.05 152.102 312.819C155.738 312.386 158.408 311.867 160.141 311.233C160.141 310.598 160.141 310.194 160.141 310.05C160.141 308.175 159.715 306.877 158.863 306.099C157.698 305.06 155.993 304.541 153.721 304.541C151.59 304.541 150.028 304.916 149.033 305.666C148.011 306.416 147.272 307.743 146.789 309.675L142.386 309.069C142.784 307.166 143.437 305.608 144.375 304.426C145.284 303.243 146.619 302.349 148.352 301.714C150.085 301.08 152.102 300.763 154.374 300.763C156.647 300.763 158.493 301.022 159.914 301.57C161.334 302.118 162.385 302.782 163.039 303.618C163.692 304.455 164.175 305.464 164.431 306.733C164.573 307.512 164.658 308.925 164.658 310.944V317.059C164.658 321.299 164.743 324.01 164.942 325.135C165.141 326.26 165.51 327.356 166.078 328.365H161.363C160.908 327.414 160.595 326.318 160.453 325.048H160.539ZM160.169 314.838C158.522 315.53 156.079 316.078 152.812 316.569C150.965 316.828 149.658 317.145 148.891 317.492C148.124 317.838 147.528 318.328 147.102 318.991C146.676 319.655 146.477 320.376 146.477 321.155C146.477 322.366 146.931 323.404 147.84 324.212C148.749 325.02 150.085 325.423 151.846 325.423C153.607 325.423 155.113 325.048 156.476 324.27C157.84 323.491 158.834 322.453 159.459 321.097C159.942 320.059 160.198 318.53 160.198 316.511V314.838H160.169Z" fill="black"/>
<path d="M171.702 328.394V301.397H175.736V305.176C176.56 303.849 177.668 302.782 179.06 301.974C180.452 301.166 182.014 300.763 183.804 300.763C185.764 300.763 187.383 301.166 188.662 302.003C189.912 302.839 190.821 303.993 191.332 305.493C193.434 302.349 196.161 300.763 199.542 300.763C202.184 300.763 204.201 301.513 205.621 302.984C207.042 304.455 207.752 306.762 207.752 309.848V328.365H203.263V311.348C203.263 309.531 203.121 308.204 202.837 307.397C202.553 306.589 202.013 305.954 201.246 305.464C200.479 304.974 199.57 304.714 198.548 304.714C196.673 304.714 195.139 305.349 193.889 306.618C192.667 307.887 192.042 309.906 192.042 312.675V328.365H187.525V310.829C187.525 308.781 187.156 307.281 186.417 306.243C185.679 305.233 184.486 304.714 182.81 304.714C181.531 304.714 180.367 305.06 179.287 305.724C178.208 306.416 177.441 307.397 176.958 308.695C176.475 309.992 176.219 311.867 176.219 314.348V328.365H171.702V328.394Z" fill="black"/>
<path d="M232.61 319.713L237.268 320.29C236.53 323.059 235.166 325.193 233.178 326.722C231.189 328.25 228.661 329 225.564 329C221.673 329 218.605 327.789 216.303 325.366C214.031 322.943 212.895 319.511 212.895 315.127C212.895 310.743 214.059 307.051 216.36 304.542C218.661 302.032 221.644 300.792 225.309 300.792C228.973 300.792 231.757 302.032 234.03 304.484C236.274 306.936 237.41 310.397 237.41 314.867C237.41 315.127 237.41 315.56 237.41 316.079H217.582C217.752 319.05 218.576 321.328 220.053 322.886C221.531 324.472 223.377 325.251 225.621 325.251C227.269 325.251 228.689 324.818 229.854 323.924C231.019 323.03 231.956 321.645 232.638 319.713H232.61ZM217.809 312.329H232.666C232.468 310.051 231.899 308.349 230.962 307.224C229.513 305.465 227.667 304.57 225.366 304.57C223.292 304.57 221.559 305.263 220.139 306.676C218.718 308.089 217.951 309.964 217.809 312.329Z" fill="black"/>
<path d="M242.894 328.395V301.398H246.956V305.493C247.979 303.59 248.944 302.321 249.825 301.715C250.706 301.109 251.672 300.792 252.723 300.792C254.228 300.792 255.791 301.282 257.353 302.263L255.791 306.503C254.683 305.84 253.575 305.522 252.495 305.522C251.501 305.522 250.62 305.811 249.853 306.416C249.058 307.022 248.518 307.859 248.177 308.926C247.666 310.541 247.439 312.329 247.439 314.262V328.395H242.922H242.894Z" fill="black"/>
</g>
<defs>
<clipPath id="clip0_395_624">
<rect width="129" height="258" fill="white" transform="translate(135 71)"/>
</clipPath>
</defs>
</svg>
