<svg width="298" height="236" viewBox="0 0 298 236" fill="none" xmlns="http://www.w3.org/2000/svg">
<path d="M0 16C0 7.16344 7.16344 0 16 0H282C290.837 0 298 7.16344 298 16V220C298 228.837 290.837 236 282 236H16C7.16344 236 0 228.837 0 220V16Z" fill="#0C3693"/>
<mask id="mask0_105_1774" style="mask-type:alpha" maskUnits="userSpaceOnUse" x="136" y="36" width="27" height="24">
<rect x="136.82" y="36" width="25.2071" height="23.8537" fill="#F6CB45"/>
</mask>
<g mask="url(#mask0_105_1774)">
<path d="M142.939 57.8656L144.646 50.8834L138.922 46.1872L146.484 45.566L149.425 38.9814L152.366 45.566L159.928 46.1872L154.204 50.8834L155.91 57.8656L149.425 54.1633L142.939 57.8656Z" fill="#F6CB45"/>
</g>
<mask id="mask1_105_1774" style="mask-type:alpha" maskUnits="userSpaceOnUse" x="173" y="45" width="26" height="24">
<rect x="173.432" y="45.0869" width="25.2071" height="23.8537" fill="#F6CB45"/>
</mask>
<g mask="url(#mask1_105_1774)">
<path d="M179.549 66.9525L181.255 59.9703L175.531 55.2742L183.093 54.653L186.034 48.0684L188.975 54.653L196.537 55.2742L190.813 59.9703L192.52 66.9525L186.034 63.2502L179.549 66.9525Z" fill="#F6CB45"/>
</g>
<mask id="mask2_105_1774" style="mask-type:alpha" maskUnits="userSpaceOnUse" x="99" y="45" width="26" height="24">
<rect width="25.2071" height="23.8537" transform="matrix(-1 0 0 1 124.817 45.0869)" fill="#F6CB45"/>
</mask>
<g mask="url(#mask2_105_1774)">
<path d="M118.7 66.9525L116.994 59.9703L122.718 55.2742L115.156 54.653L112.215 48.0684L109.274 54.653L101.712 55.2742L107.436 59.9703L105.729 66.9525L112.215 63.2502L118.7 66.9525Z" fill="#F6CB45"/>
</g>
<mask id="mask3_105_1774" style="mask-type:alpha" maskUnits="userSpaceOnUse" x="200" y="70" width="26" height="25">
<rect x="200.438" y="70.6445" width="25.2071" height="23.8537" fill="#F6CB45"/>
</mask>
<g mask="url(#mask3_105_1774)">
<path d="M206.557 92.5101L208.264 85.528L202.54 80.8318L210.102 80.2106L213.043 73.626L215.984 80.2106L223.546 80.8318L217.822 85.528L219.529 92.5101L213.043 88.8078L206.557 92.5101Z" fill="#F6CB45"/>
</g>
<mask id="mask4_105_1774" style="mask-type:alpha" maskUnits="userSpaceOnUse" x="72" y="70" width="26" height="25">
<rect width="25.2071" height="23.8537" transform="matrix(-1 0 0 1 97.8105 70.6445)" fill="#F6CB45"/>
</mask>
<g mask="url(#mask4_105_1774)">
<path d="M91.6916 92.5101L89.9849 85.528L95.709 80.8318L88.1469 80.2106L85.206 73.626L82.2652 80.2106L74.7031 80.8318L80.4272 85.528L78.7205 92.5101L85.206 88.8078L91.6916 92.5101Z" fill="#F6CB45"/>
</g>
<mask id="mask5_105_1774" style="mask-type:alpha" maskUnits="userSpaceOnUse" x="210" y="105" width="26" height="25">
<rect x="210.042" y="105.856" width="25.2071" height="23.8537" fill="#F6CB45"/>
</mask>
<g mask="url(#mask5_105_1774)">
<path d="M216.161 127.722L217.868 120.74L212.144 116.044L219.706 115.422L222.646 108.838L225.587 115.422L233.149 116.044L227.425 120.74L229.132 127.722L222.646 124.02L216.161 127.722Z" fill="#F6CB45"/>
</g>
<mask id="mask6_105_1774" style="mask-type:alpha" maskUnits="userSpaceOnUse" x="63" y="105" width="26" height="25">
<rect width="25.2071" height="23.8537" transform="matrix(-1 0 0 1 88.207 105.856)" fill="#F6CB45"/>
</mask>
<g mask="url(#mask6_105_1774)">
<path d="M82.0881 127.722L80.3814 120.74L86.1055 116.044L78.5434 115.422L75.6025 108.838L72.6617 115.422L65.0996 116.044L70.8237 120.74L69.117 127.722L75.6025 124.02L82.0881 127.722Z" fill="#F6CB45"/>
</g>
<mask id="mask7_105_1774" style="mask-type:alpha" maskUnits="userSpaceOnUse" x="200" y="141" width="26" height="24">
<rect x="200.438" y="141.07" width="25.2071" height="23.8537" fill="#F6CB45"/>
</mask>
<g mask="url(#mask7_105_1774)">
<path d="M206.557 162.936L208.264 155.954L202.54 151.258L210.102 150.636L213.043 144.052L215.984 150.636L223.546 151.258L217.822 155.954L219.529 162.936L213.043 159.234L206.557 162.936Z" fill="#F6CB45"/>
</g>
<mask id="mask8_105_1774" style="mask-type:alpha" maskUnits="userSpaceOnUse" x="72" y="141" width="26" height="24">
<rect width="25.2071" height="23.8537" transform="matrix(-1 0 0 1 97.8105 141.07)" fill="#F6CB45"/>
</mask>
<g mask="url(#mask8_105_1774)">
<path d="M91.6916 162.936L89.9849 155.954L95.709 151.258L88.1469 150.636L85.206 144.052L82.2652 150.636L74.7031 151.258L80.4272 155.954L78.7205 162.936L85.206 159.234L91.6916 162.936Z" fill="#F6CB45"/>
</g>
<mask id="mask9_105_1774" style="mask-type:alpha" maskUnits="userSpaceOnUse" x="173" y="166" width="26" height="25">
<rect x="173.432" y="166.627" width="25.2071" height="23.8537" fill="#F6CB45"/>
</mask>
<g mask="url(#mask9_105_1774)">
<path d="M179.549 188.493L181.255 181.51L175.531 176.814L183.093 176.193L186.034 169.608L188.975 176.193L196.537 176.814L190.813 181.51L192.52 188.493L186.034 184.79L179.549 188.493Z" fill="#F6CB45"/>
</g>
<mask id="mask10_105_1774" style="mask-type:alpha" maskUnits="userSpaceOnUse" x="99" y="166" width="26" height="25">
<rect width="25.2071" height="23.8537" transform="matrix(-1 0 0 1 124.817 166.627)" fill="#F6CB45"/>
</mask>
<g mask="url(#mask10_105_1774)">
<path d="M118.7 188.493L116.994 181.51L122.718 176.814L115.156 176.193L112.215 169.608L109.274 176.193L101.712 176.814L107.436 181.51L105.729 188.493L112.215 184.79L118.7 188.493Z" fill="#F6CB45"/>
</g>
<mask id="mask11_105_1774" style="mask-type:alpha" maskUnits="userSpaceOnUse" x="136" y="175" width="27" height="24">
<rect x="136.82" y="175.146" width="25.2071" height="23.8537" fill="#F6CB45"/>
</mask>
<g mask="url(#mask11_105_1774)">
<path d="M142.939 197.012L144.646 190.03L138.922 185.334L146.484 184.713L149.425 178.128L152.366 184.713L159.928 185.334L154.204 190.03L155.91 197.012L149.425 193.31L142.939 197.012Z" fill="#F6CB45"/>
</g>
</svg>
