<svg width="800" height="274" viewBox="0 0 800 274" fill="none" xmlns="http://www.w3.org/2000/svg">
<mask id="mask0_273_2077" style="mask-type:alpha" maskUnits="userSpaceOnUse" x="0" y="0" width="800" height="274">
<rect width="800" height="274" rx="16" fill="#D9D9D9"/>
</mask>
<g mask="url(#mask0_273_2077)">
<path d="M0 16C0 7.16344 7.16344 0 16 0H784C792.837 0 800 7.16344 800 16V258C800 266.837 792.837 274 784 274H16C7.16343 274 0 266.837 0 258V16Z" fill="#ECE1CD"/>
<g clip-path="url(#clip0_273_2077)">
<path d="M390.148 44.3873C389.414 47.2504 389.479 46.6998 389.09 48.9242C387.882 55.8396 389.176 62.1162 394.205 67.2257C398.499 71.5863 402.859 75.9029 407.197 80.1975C409.7 82.6862 412.204 85.1528 413.952 88.3022C416.023 92.0462 417.167 95.9884 416.369 100.349C416.11 101.714 415.549 102.97 414.966 104.423C415.592 104.181 415.872 103.807 416.174 103.454C417.275 102.133 418.268 100.745 419.131 99.2699C422.239 93.8961 423.663 88.2361 421.872 82.0695C420.577 77.5767 417.815 74.053 414.47 70.9477C409.42 66.2567 404.305 61.6317 399.384 56.8086C395.759 53.2628 393.428 48.9242 392.888 43.7266C392.888 43.4183 392.888 43.11 392.888 42.8017C392.932 41.216 393.32 39.6963 393.73 37.9785C393.061 38.3749 392.824 38.8374 392.565 39.2779C392.565 39.2779 391.054 41.7886 390.191 44.3653L390.148 44.3873Z" fill="#C00002"/>
<path d="M402.147 176.946C405.428 170.229 404.241 163.93 400.529 157.852C398.975 155.319 396.968 153.161 394.961 150.98C390.299 145.893 385.703 140.717 381.041 135.63C378.775 133.163 377.653 130.256 377.415 126.953C377.156 123.187 377.718 119.553 379.466 116.139C380.286 114.553 380.998 112.902 381.753 111.294C382.099 111.338 382.012 111.58 382.012 111.756C381.796 116.8 383.868 121.028 386.48 125.081C388.767 128.626 391.875 131.379 394.702 134.397C398.09 137.986 401.543 141.488 404.931 145.056C411.881 152.368 412.701 161.199 407.305 170.559C406.097 172.651 404.672 174.589 403.054 176.395C402.816 176.66 402.644 177.078 402.126 176.968L402.147 176.946Z" fill="#00802F"/>
<path d="M396.86 102.441C395.759 100.151 395.802 97.7503 396.256 95.3277C397.076 90.945 398.845 86.9367 401.025 82.8184C401.09 84.2279 401.068 85.4171 401.241 86.5844C401.91 91.0772 404.176 94.5569 407.737 97.2437C410.478 99.2919 412.528 101.891 413.218 105.37C413.585 107.242 413.413 109.07 412.355 110.788C410.542 113.739 408.838 116.757 407.089 119.73C407.305 116.845 406.183 114.378 404.78 111.999C402.644 108.388 399.773 105.392 396.817 102.463L396.86 102.441Z" fill="#00802F"/>
<path d="M396.86 102.441C399.817 105.348 402.666 108.343 404.824 111.977C406.227 114.356 407.327 116.822 407.133 119.707C406.55 120.478 406.356 119.597 406.14 119.399C403.227 116.69 400.011 114.466 396.386 112.858C391.918 110.876 387.278 109.907 382.358 110.259C385.336 103.762 390.386 101.362 396.084 102.331C396.342 102.375 396.623 102.419 396.882 102.463L396.86 102.441Z" fill="#0F3A1F"/>
<path d="M427.743 180.713C424.786 180.713 422.606 181.682 421.182 183.642C420.017 185.294 419.434 187.452 419.434 190.117V191.526C419.434 194.455 418.009 195.909 415.226 195.909H414.578V195.821H367.164V179.766L363.085 180.999V198.309C363.085 201.987 360.992 204.256 357.518 204.256C355.079 204.256 352.942 203.683 351 202.604L352.921 206.722C354.172 207.515 355.662 207.912 357.496 207.912C363.021 207.912 366.538 204.586 367.1 199.521H415.484C418.312 199.521 420.405 198.728 421.786 197.208C423.275 198.728 425.261 199.521 427.743 199.521C430.656 199.521 432.836 198.508 434.26 196.548C435.425 194.94 436.008 192.781 436.008 190.161C436.008 187.54 435.404 185.36 434.26 183.686C432.836 181.726 430.656 180.757 427.743 180.757V180.713ZM427.743 195.931C424.915 195.931 423.491 194.015 423.491 190.117C423.491 186.218 424.915 184.258 427.743 184.258C430.57 184.258 431.951 186.218 431.951 190.117C431.951 194.015 430.527 195.931 427.743 195.931Z" fill="black"/>
<path d="M447.101 166.287C446.281 167.035 445.569 167.432 444.878 167.432C444.403 167.432 443.67 167.212 442.699 166.771C441.706 166.287 440.821 166.066 440.001 166.066C438.836 166.066 437.476 166.683 435.879 167.894L437.756 169.26C438.533 168.511 439.375 168.115 440.281 168.115C440.67 168.115 441.361 168.335 442.289 168.819C443.238 169.26 444.08 169.48 444.857 169.48C446.022 169.48 447.382 168.863 448.979 167.696L447.101 166.287Z" fill="black"/>
<path d="M439.698 199.476H443.777V171.264L439.698 172.585V199.476Z" fill="black"/>
<path d="M370.401 231.983C369.128 233.084 367.919 233.855 366.732 234.318C365.567 234.78 364.294 235 362.956 235C360.733 235 359.028 234.45 357.841 233.349C356.654 232.247 356.05 230.838 356.05 229.098C356.05 228.085 356.266 227.16 356.719 226.323C357.172 225.486 357.755 224.826 358.488 224.319C359.222 223.812 360.042 223.438 360.949 223.174C361.618 222.998 362.632 222.821 363.992 222.645C366.754 222.315 368.783 221.918 370.099 221.434C370.099 220.949 370.099 220.641 370.099 220.531C370.099 219.099 369.775 218.108 369.128 217.514C368.243 216.721 366.948 216.325 365.222 216.325C363.603 216.325 362.416 216.611 361.661 217.183C360.884 217.756 360.323 218.769 359.956 220.245L356.611 219.782C356.913 218.329 357.409 217.139 358.122 216.236C358.812 215.333 359.827 214.651 361.143 214.166C362.459 213.682 363.992 213.439 365.718 213.439C367.445 213.439 368.847 213.638 369.926 214.056C371.006 214.475 371.804 214.981 372.3 215.62C372.797 216.258 373.164 217.029 373.358 217.998C373.466 218.593 373.531 219.672 373.531 221.214V225.883C373.531 229.12 373.595 231.19 373.746 232.049C373.897 232.908 374.178 233.745 374.61 234.516H371.027C370.682 233.789 370.444 232.952 370.337 231.983H370.401ZM370.121 224.187C368.869 224.715 367.013 225.134 364.531 225.508C363.128 225.707 362.136 225.949 361.553 226.213C360.97 226.477 360.517 226.852 360.193 227.358C359.87 227.865 359.719 228.415 359.719 229.01C359.719 229.935 360.064 230.728 360.754 231.345C361.445 231.961 362.459 232.27 363.797 232.27C365.135 232.27 366.279 231.983 367.315 231.389C368.351 230.794 369.106 230.001 369.581 228.966C369.948 228.173 370.142 227.006 370.142 225.464V224.187H370.121Z" fill="black"/>
<path d="M378.882 234.538V213.924H381.947V216.809C382.573 215.796 383.414 214.981 384.472 214.364C385.529 213.748 386.716 213.439 388.076 213.439C389.565 213.439 390.795 213.748 391.766 214.386C392.716 215.025 393.406 215.906 393.795 217.051C395.392 214.651 397.464 213.439 400.032 213.439C402.039 213.439 403.571 214.012 404.65 215.135C405.729 216.258 406.269 218.02 406.269 220.377V234.516H402.859V221.522C402.859 220.135 402.751 219.122 402.535 218.505C402.319 217.888 401.909 217.404 401.327 217.029C400.744 216.655 400.053 216.457 399.277 216.457C397.852 216.457 396.687 216.941 395.737 217.91C394.809 218.879 394.334 220.421 394.334 222.535V234.516H390.903V221.126C390.903 219.562 390.622 218.417 390.061 217.624C389.5 216.853 388.594 216.457 387.321 216.457C386.349 216.457 385.465 216.721 384.644 217.227C383.824 217.756 383.242 218.505 382.875 219.496C382.508 220.487 382.314 221.918 382.314 223.813V234.516H378.882V234.538Z" fill="black"/>
<path d="M425.153 227.908L428.692 228.349C428.131 230.463 427.095 232.093 425.585 233.26C424.074 234.427 422.153 235 419.801 235C416.844 235 414.514 234.075 412.766 232.225C411.039 230.375 410.176 227.754 410.176 224.407C410.176 221.059 411.061 218.24 412.809 216.324C414.557 214.408 416.823 213.461 419.607 213.461C422.391 213.461 424.506 214.408 426.232 216.28C427.937 218.152 428.8 220.795 428.8 224.208C428.8 224.407 428.8 224.737 428.8 225.133H413.737C413.866 227.402 414.492 229.142 415.614 230.331C416.736 231.542 418.139 232.137 419.844 232.137C421.096 232.137 422.175 231.807 423.06 231.124C423.945 230.441 424.657 229.384 425.175 227.908H425.153ZM413.909 222.27H425.196C425.045 220.53 424.614 219.231 423.901 218.372C422.801 217.029 421.398 216.346 419.65 216.346C418.074 216.346 416.758 216.875 415.679 217.954C414.6 219.033 414.017 220.464 413.909 222.27Z" fill="black"/>
<path d="M432.966 234.537V213.923H436.052V217.051C436.829 215.597 437.563 214.628 438.232 214.166C438.901 213.703 439.634 213.461 440.433 213.461C441.577 213.461 442.764 213.835 443.951 214.584L442.764 217.822C441.922 217.315 441.08 217.073 440.26 217.073C439.505 217.073 438.836 217.293 438.253 217.756C437.649 218.218 437.239 218.857 436.98 219.672C436.591 220.905 436.419 222.27 436.419 223.746V234.537H432.987H432.966Z" fill="black"/>
</g>
</g>
<defs>
<clipPath id="clip0_273_2077">
<rect width="98" height="197" fill="white" transform="translate(351 38)"/>
</clipPath>
</defs>
</svg>
