<svg width="1024" height="1024" viewBox="0 0 1024 1024" fill="none" xmlns="http://www.w3.org/2000/svg">
<rect width="1024" height="1024" fill="#ECE1CD"/>
<mask id="mask0_737_792" style="mask-type:alpha" maskUnits="userSpaceOnUse" x="372" y="254" width="265" height="264">
<rect x="372.233" y="254" width="263.831" height="263.831" fill="#7A2BDE"/>
</mask>
<g mask="url(#mask0_737_792)">
<path d="M416.204 451.874C410.158 451.874 404.982 449.721 400.677 445.415C396.371 441.11 394.219 435.934 394.219 429.888V297.972C394.219 291.926 396.371 286.75 400.677 282.444C404.982 278.139 410.158 275.986 416.204 275.986H592.092C598.138 275.986 603.314 278.139 607.62 282.444C611.925 286.75 614.078 291.926 614.078 297.972V495.846L570.106 451.874H416.204Z" fill="#AD7C32"/>
</g>
<path d="M508.593 417.758C503.558 417.758 498.635 417.153 493.825 415.942C489.091 414.732 484.807 412.802 480.974 410.154C477.142 407.582 474.098 404.253 471.843 400.167C469.589 396.081 468.462 391.163 468.462 385.412C468.462 379.208 469.702 373.533 472.182 368.388C474.662 363.168 478.156 358.552 482.665 354.542C487.174 350.532 492.51 347.203 498.673 344.554C504.91 341.831 511.711 339.901 519.076 338.766L522.796 353.747C516.183 354.958 510.434 356.547 505.549 358.514C500.739 360.481 496.756 362.789 493.6 365.437C490.444 368.086 488.076 370.923 486.498 373.949C484.995 377.052 484.244 380.305 484.244 383.71C484.244 386.434 484.732 388.817 485.709 390.86C486.761 392.903 488.151 394.605 489.88 395.967C491.608 397.405 493.525 398.54 495.629 399.372C497.733 400.28 499.913 400.923 502.167 401.302C504.422 401.68 506.564 401.869 508.593 401.869C513.778 401.869 518.588 401.377 523.022 400.394C527.531 399.41 531.476 398.199 534.858 396.762L539.367 411.403C537.564 412.311 535.009 413.256 531.702 414.24C528.47 415.224 524.825 416.056 520.767 416.737C516.784 417.418 512.726 417.758 508.593 417.758ZM486.16 354.882C483.53 353.823 481.087 352.31 478.833 350.343C476.653 348.375 474.887 345.954 473.534 343.079C472.257 340.128 471.618 336.761 471.618 332.978C471.618 328.211 472.858 324.088 475.338 320.607C477.818 317.127 481.125 314.441 485.258 312.549C489.391 310.657 493.901 309.712 498.785 309.712C501.19 309.712 503.407 309.863 505.436 310.166C507.541 310.468 509.682 310.922 511.862 311.528L509.382 326.622C507.804 326.244 506.188 325.941 504.535 325.714C502.881 325.487 501.416 325.374 500.138 325.374C497.508 325.374 495.216 325.752 493.262 326.509C491.383 327.265 489.917 328.363 488.865 329.8C487.888 331.162 487.4 332.789 487.4 334.68C487.4 336.194 487.851 337.631 488.753 338.993C489.73 340.355 490.97 341.566 492.473 342.625C493.976 343.609 495.629 344.441 497.433 345.122C499.236 345.727 501.002 346.068 502.731 346.143L486.16 354.882Z" fill="white"/>
<mask id="mask1_737_792" style="mask-type:alpha" maskUnits="userSpaceOnUse" x="254" y="465" width="265" height="265">
<rect width="263.831" height="263.831" transform="matrix(-1 0 0 1 518.732 465.873)" fill="#10AED0"/>
</mask>
<g mask="url(#mask1_737_792)">
<path d="M474.76 663.746C480.806 663.746 485.982 661.594 490.288 657.288C494.593 652.983 496.746 647.807 496.746 641.761V509.845C496.746 503.799 494.593 498.623 490.288 494.317C485.982 490.012 480.806 487.859 474.76 487.859H298.873C292.826 487.859 287.651 490.012 283.345 494.317C279.039 498.623 276.887 503.799 276.887 509.845V707.718L320.859 663.746H474.76Z" fill="black"/>
</g>
<path d="M385.501 522.947C384.717 525.409 384.194 527.741 383.671 529.814C381.187 541.864 378.965 560.521 378.965 576.587C378.965 597.059 382.756 611.57 387.07 624.656L372.037 629.062C368.115 617.401 364.324 598.225 364.324 579.179C364.324 562.205 366.677 543.159 368.115 530.332C368.377 527.741 368.638 524.761 368.508 522.429L385.501 522.947ZM362.102 537.199C386.939 537.199 406.678 536.033 426.678 531.239L426.809 546.139C408.9 549.378 381.449 551.322 361.71 551.322C354.782 551.322 344.586 550.674 338.442 550.415L338.049 535.515C342.755 536.163 354.128 537.199 362.102 537.199ZM418.574 556.245C417.528 558.578 415.567 564.538 414.652 567.259C407.201 590.58 393.737 608.072 381.318 617.142C372.821 623.361 361.449 629.062 350.076 629.062C340.533 629.062 332.559 623.361 332.559 610.145C332.559 591.876 349.03 572.83 369.815 565.315C378.442 562.205 389.161 560.262 398.966 560.262C423.41 560.262 441.45 574.255 441.45 594.467C441.45 612.866 430.469 630.616 398.443 635.54L389.684 621.806C414.914 619.085 425.241 606.517 425.241 593.69C425.241 582.677 415.698 573.348 398.051 573.348C386.155 573.348 376.743 576.717 370.338 579.567C357.265 585.657 347.984 598.095 347.984 606.776C347.984 611.052 349.684 613.255 353.997 613.255C360.141 613.255 368.9 608.979 376.874 601.594C386.416 592.913 395.305 581.381 400.534 563.501C401.449 560.78 402.364 555.209 402.495 552.358L418.574 556.245Z" fill="white"/>
<mask id="mask2_737_792" style="mask-type:alpha" maskUnits="userSpaceOnUse" x="504" y="507" width="265" height="264">
<rect x="504.822" y="507.137" width="263.831" height="263.831" fill="#D9D9D9"/>
</mask>
<g mask="url(#mask2_737_792)">
<path d="M746.667 748.982L702.696 705.011H548.794C542.748 705.011 537.572 702.858 533.266 698.552C528.961 694.247 526.808 689.071 526.808 683.025V551.109C526.808 545.063 528.961 539.887 533.266 535.581C537.572 531.276 542.748 529.123 548.794 529.123H724.682C730.728 529.123 735.903 531.276 740.209 535.581C744.515 539.887 746.667 545.063 746.667 551.109V748.982Z" fill="#00802F"/>
</g>
<path d="M660.06 661.61L652.782 638.577H620.55L613.402 661.61H595.986L626.399 571.29H647.713L677.866 661.61H660.06ZM636.926 586.818H636.276L624.709 623.955H648.623L636.926 586.818Z" fill="white"/>
</svg>
