<svg width="400" height="400" viewBox="0 0 400 400" fill="none" xmlns="http://www.w3.org/2000/svg">
<g style="mix-blend-mode:darken">
<path d="M0 16C0 7.16345 7.16344 0 16 0H384C392.837 0 400 7.16344 400 16V384C400 392.837 392.837 400 384 400H16C7.16345 400 0 392.837 0 384V16Z" fill="#ECE1CD"/>
</g>
<mask id="mask0_128_961" style="mask-type:alpha" maskUnits="userSpaceOnUse" x="139" y="88" width="115" height="115">
<rect x="139.355" y="88.499" width="114.237" height="114.237" fill="#7A2BDE"/>
</mask>
<g mask="url(#mask0_128_961)">
<path d="M158.395 174.176C155.777 174.176 153.536 173.244 151.671 171.38C149.807 169.516 148.875 167.274 148.875 164.657V107.538C148.875 104.92 149.807 102.679 151.671 100.815C153.536 98.9507 155.777 98.0186 158.395 98.0186H234.552C237.17 98.0186 239.411 98.9507 241.276 100.815C243.14 102.679 244.072 104.92 244.072 107.538V193.216L225.033 174.176H158.395Z" fill="#AD7C32"/>
</g>
<path d="M198.398 159.404C196.218 159.404 194.086 159.142 192.004 158.618C189.954 158.094 188.099 157.258 186.439 156.112C184.78 154.998 183.462 153.556 182.486 151.787C181.51 150.018 181.021 147.889 181.021 145.399C181.021 142.712 181.558 140.255 182.632 138.028C183.706 135.767 185.219 133.769 187.172 132.032C189.124 130.296 191.434 128.854 194.103 127.708C196.803 126.528 199.748 125.693 202.937 125.201L204.548 131.688C201.684 132.212 199.195 132.9 197.08 133.752C194.997 134.604 193.273 135.603 191.906 136.75C190.539 137.896 189.514 139.125 188.831 140.435C188.18 141.779 187.855 143.187 187.855 144.662C187.855 145.841 188.066 146.873 188.489 147.758C188.945 148.642 189.547 149.379 190.295 149.969C191.044 150.592 191.874 151.083 192.785 151.443C193.696 151.836 194.639 152.115 195.616 152.279C196.592 152.443 197.519 152.524 198.398 152.524C200.643 152.524 202.726 152.311 204.646 151.886C206.598 151.46 208.306 150.936 209.771 150.313L211.723 156.652C210.942 157.045 209.836 157.455 208.404 157.881C207.005 158.307 205.426 158.667 203.669 158.962C201.945 159.257 200.188 159.404 198.398 159.404ZM188.685 132.18C187.546 131.721 186.488 131.066 185.512 130.214C184.568 129.362 183.804 128.314 183.218 127.069C182.665 125.791 182.388 124.333 182.388 122.695C182.388 120.631 182.925 118.846 183.999 117.339C185.073 115.832 186.504 114.669 188.294 113.85C190.084 113.031 192.036 112.621 194.151 112.621C195.193 112.621 196.153 112.687 197.031 112.818C197.942 112.949 198.87 113.145 199.813 113.407L198.74 119.943C198.056 119.779 197.357 119.648 196.641 119.55C195.925 119.452 195.29 119.403 194.737 119.403C193.598 119.403 192.606 119.567 191.76 119.894C190.946 120.222 190.312 120.697 189.856 121.319C189.433 121.909 189.222 122.613 189.222 123.432C189.222 124.088 189.417 124.71 189.807 125.3C190.23 125.889 190.767 126.414 191.418 126.872C192.069 127.298 192.785 127.659 193.566 127.953C194.347 128.216 195.111 128.363 195.86 128.396L188.685 132.18Z" fill="white"/>
<mask id="mask1_128_961" style="mask-type:alpha" maskUnits="userSpaceOnUse" x="88" y="180" width="115" height="115">
<rect width="114.237" height="114.237" transform="matrix(-1 0 0 1 202.79 180.239)" fill="#10AED0"/>
</mask>
<g mask="url(#mask1_128_961)">
<path d="M183.751 265.916C186.369 265.916 188.61 264.984 190.474 263.12C192.338 261.256 193.271 259.015 193.271 256.397V199.278C193.271 196.661 192.338 194.419 190.474 192.555C188.61 190.691 186.369 189.759 183.751 189.759H107.593C104.975 189.759 102.734 190.691 100.87 192.555C99.0055 194.419 98.0734 196.661 98.0734 199.278V284.956L117.113 265.916H183.751Z" fill="black"/>
</g>
<path d="M145.101 204.951C144.762 206.017 144.535 207.027 144.309 207.924C143.233 213.142 142.271 221.22 142.271 228.177C142.271 237.041 143.913 243.324 145.78 248.99L139.271 250.898C137.573 245.849 135.932 237.546 135.932 229.299C135.932 221.95 136.951 213.703 137.573 208.149C137.686 207.027 137.8 205.736 137.743 204.727L145.101 204.951ZM134.97 211.122C145.724 211.122 154.271 210.617 162.931 208.541L162.987 214.993C155.233 216.396 143.347 217.237 134.8 217.237C131.8 217.237 127.385 216.957 124.725 216.844L124.555 210.393C126.593 210.673 131.517 211.122 134.97 211.122ZM159.421 219.369C158.968 220.379 158.119 222.959 157.723 224.138C154.497 234.236 148.667 241.809 143.29 245.736C139.611 248.429 134.687 250.898 129.762 250.898C125.63 250.898 122.178 248.429 122.178 242.707C122.178 234.797 129.309 226.55 138.309 223.296C142.045 221.95 146.686 221.108 150.931 221.108C161.515 221.108 169.326 227.167 169.326 235.919C169.326 243.885 164.572 251.571 150.705 253.703L146.912 247.756C157.836 246.578 162.308 241.136 162.308 235.582C162.308 230.814 158.176 226.774 150.535 226.774C145.384 226.774 141.309 228.233 138.535 229.467C132.875 232.104 128.857 237.49 128.857 241.248C128.857 243.1 129.592 244.053 131.46 244.053C134.121 244.053 137.913 242.202 141.366 239.004C145.497 235.246 149.346 230.253 151.61 222.511C152.007 221.332 152.403 218.92 152.459 217.686L159.421 219.369Z" fill="white"/>
<mask id="mask2_128_961" style="mask-type:alpha" maskUnits="userSpaceOnUse" x="196" y="198" width="115" height="115">
<rect x="196.763" y="198.105" width="114.237" height="114.237" fill="#D9D9D9"/>
</mask>
<g mask="url(#mask2_128_961)">
<path d="M301.479 302.822L282.44 283.783H215.802C213.184 283.783 210.943 282.851 209.079 280.986C207.214 279.122 206.282 276.881 206.282 274.263V217.145C206.282 214.527 207.214 212.286 209.079 210.421C210.943 208.557 213.184 207.625 215.802 207.625H291.96C294.578 207.625 296.819 208.557 298.683 210.421C300.547 212.286 301.479 214.527 301.479 217.145V302.822Z" fill="#00802F"/>
</g>
<path d="M263.981 264.991L260.829 255.018H246.873L243.778 264.991H236.237L249.406 225.883H258.635L271.69 264.991H263.981ZM253.964 232.606H253.682L248.674 248.686H259.028L253.964 232.606Z" fill="white"/>
</svg>
