<svg width="298" height="236" viewBox="0 0 298 236" fill="none" xmlns="http://www.w3.org/2000/svg">
<path d="M0 16C0 7.16344 7.16344 0 16 0H282C290.837 0 298 7.16344 298 16V220C298 228.837 290.837 236 282 236H16C7.16344 236 0 228.837 0 220V16Z" fill="#005430"/>
<path d="M268.317 100.145C268.284 94.877 266.124 80.6872 265.576 75.9269C265.029 71.1666 264.478 66.848 264.611 65.8367C264.741 64.8609 266.328 67.1936 267.167 67.3822C267.601 67.2999 267.407 65.8266 266.619 64.5685C266.085 63.7141 264.265 60.5195 263.161 58.6475C262.642 57.7616 262.526 57.2477 262.276 57.1388C262.027 57.03 260.018 60.8663 260.238 61.2916C260.786 62.0713 261.162 62.4434 261.248 63.8205C261.334 65.1976 262.087 75.0295 263.046 82.482C263.768 88.1042 265.352 100.217 265.408 107.748C265.424 110.205 265.136 112.546 264.79 113.525C263.904 115.061 262.518 116.447 257.356 119.305C251.553 122.519 243.812 125.193 240.485 126.983C238.416 128.099 239.102 128.249 240.903 127.76C242.7 127.271 251.99 125.706 256.504 123.901C260.741 122.202 263.491 119.361 265.579 115.216C268.157 110.091 268.354 105.742 268.317 100.145Z" fill="white"/>
<path d="M250.353 60.1301C250.802 59.9655 254.515 59.7845 255.515 59.9794C254.858 60.868 250.405 62.8349 250.386 63.1956C250.508 63.4386 253.462 62.7463 254.394 62.3615C255.003 62.0147 255.409 61.478 255.861 61.0325C256.925 59.8731 258.188 57.7227 257.87 57.4531C257.354 57.0177 252.292 57.2886 251.625 57.3784C251.178 57.4392 250.044 59.363 249.835 59.8567C249.631 60.3503 249.905 60.2946 250.353 60.1301Z" fill="white"/>
<path d="M257.937 91.3532C258.711 88.8724 258.902 85.8626 257.849 82.6945C256.767 79.4328 254.079 77.4444 252.141 76.4255L251.795 79.5657C251.795 79.5657 254.513 80.844 256.372 84.0627C257.55 86.1043 258.04 88.9914 257.11 92.2101C256.955 93.0087 257.558 92.5682 257.937 91.3532Z" fill="white"/>
<path d="M229.18 107.101C229.878 104.867 230.048 102.157 229.102 99.304C228.127 96.3663 225.707 94.5753 223.961 93.6615L223.648 96.4878C223.648 96.4878 226.096 97.6396 227.77 100.536C228.832 102.372 229.272 104.976 228.437 107.873C228.298 108.589 228.841 108.194 229.18 107.101Z" fill="white"/>
<path d="M129.338 64.3441C130.458 66.2819 130.923 69.0259 130.042 72.0826C129.894 72.8408 130.464 72.4243 130.827 71.27C131.559 68.9158 131.741 66.0553 130.74 63.0442C129.712 59.9445 127.158 58.0574 125.317 57.0916L124.991 60.0736C124.991 60.0736 127.574 61.2874 129.338 64.3441Z" fill="white"/>
<path d="M61.9394 65.3468C62.8797 67.4327 62.9434 70.2489 61.4244 73.2157C61.1293 73.9612 61.8483 73.608 62.4515 72.493C63.6841 70.2134 64.3756 67.3605 63.7506 64.2089C63.1098 60.9687 60.5376 58.7601 58.6121 57.564L57.7383 60.5245C57.7383 60.5245 60.4566 62.0585 61.9394 65.3468Z" fill="white"/>
<path d="M80.571 111.97C81.7659 109.872 82.2636 108.459 82.7945 105.973C83.2589 103.786 83.2893 101.26 83.1215 98.6879C86.6976 97.3083 90.9595 95.0186 92.3917 94.8503C91.4123 98.0323 93.7501 101.466 98.472 101.018C98.8337 104.616 99.1433 107.777 99.3314 109.651C99.7162 113.494 99.6583 118.337 99.6467 119.178C99.6308 120.024 100.277 119.864 100.942 117.981C101.827 115.46 102.1 108.876 101.779 104.522C101.702 103.433 101.572 101.964 101.415 100.289C104.476 98.9486 104.985 96.3615 106.129 95.2591C107.162 98.6828 112.848 99.1473 114.602 98.4145C116.778 97.5045 117.491 95.8679 118.051 92.0695C118.613 88.2724 116.978 86.7435 116.393 86.3296C116.335 86.789 114.912 91.2519 114.912 91.2519C114.912 91.2519 116.262 92.6011 116.33 93.2644C115.23 94.206 112.911 94.2643 110.964 93.6643C109.015 93.0644 108.418 91.9607 108.534 91.2203C108.646 90.4773 109.38 89.8014 109.404 88.8964C109.426 87.9914 108.968 88.2534 108.188 89.0546C107.408 89.8571 106.905 90.5785 105.825 92.3012C104.943 93.7099 103.511 95.4287 100.985 95.9198C100.568 91.7835 100.092 87.3826 99.774 84.6183C99.6077 83.159 97.9455 70.5475 97.8268 69.1363C97.7241 67.9073 97.5317 66.458 97.5635 65.7771C97.5954 65.2354 97.9541 65.4506 98.5097 66.0176C99.0666 66.5834 100.04 67.5706 100.208 67.4934C100.775 67.2301 100.195 65.591 99.4529 64.1228C98.7122 62.6508 96.1834 56.8438 95.6525 56.6046C95.3791 56.483 93.672 60.0574 93.5707 60.7611C93.8355 61.2016 94.527 61.8939 94.5516 63.8634C94.5603 64.4127 94.9335 69.5919 95.4514 74.4889C95.9042 78.8138 96.5046 82.9172 96.5624 83.3944C96.9747 86.6954 97.4753 91.3481 97.9512 95.9223C95.2098 95.4287 94.4807 93.7175 94.5415 92.7416C94.6109 91.6405 95.136 90.3975 94.8843 90.1166C94.3563 89.8166 91.2141 91.4785 86.8322 93.2644C85.5996 93.7656 84.2108 94.3035 82.7453 94.8136C82.3634 91.6962 81.86 88.7319 81.6574 86.465L81.6329 86.2131C84.5146 86.0372 86.8741 84.6601 87.9475 83.3488C89.2886 81.7098 90.226 78.3367 90.3172 75.7521C90.4083 73.165 88.2022 68.4351 87.677 66.9314C87.1475 65.4265 86.8741 64.3836 86.8278 63.8634C86.7801 63.3432 88.0199 64.4658 88.7996 64.6861C89.3277 64.7861 89.1454 63.7039 88.5002 62.9609C87.8593 62.2205 84.3931 57.2425 84.15 57.5918C84.001 57.7968 82.6122 61.4585 82.5211 62.0192C83.0679 62.361 83.7074 63.3027 83.7522 64.2051C83.7985 65.1075 84.5624 69.0755 85.4086 71.2804C86.2578 73.4852 88.0662 77.7152 88.1805 78.8784C86.8886 79.7403 83.9475 81.1997 81.0383 81.1124C80.5406 77.2545 79.9099 72.7739 79.5728 69.6008C79.4426 68.3743 79.4339 67.0656 79.4542 66.3821C79.4701 65.8404 79.8824 65.9151 80.4495 66.472C81.0195 67.0289 81.8933 67.8389 82.0726 67.7807C82.4632 67.6579 82.1247 66.4289 81.3507 64.9696C80.5768 63.5102 77.5012 57.3374 76.9616 57.107C76.6881 56.9893 75.3109 60.4561 75.2241 61.1636C75.499 61.6015 76.2035 62.2787 76.273 64.2481C76.3279 65.8163 77.1352 73.5017 77.8267 80.2707C74.9478 78.8619 73.9655 76.8482 73.6096 73.4675C73.3608 71.1108 73.3362 66.7694 72.448 63.1381C71.9474 61.0851 70.8928 58.9993 69.6429 57.8918C69.3449 58.574 68.0139 62.7622 68.0139 62.7622C68.4479 63.9646 69.7977 68.0136 69.7514 71.5221C69.7065 75.0307 69.4143 78.4607 65.2595 80.8238C61.1076 83.1881 54.8797 82.2477 53.3418 78.5594C51.804 74.8686 55.2225 65.6151 55.1777 63.4305C55.1314 61.2459 54.7191 60.9446 53.7541 61.3054C52.7907 61.6661 50.8189 63.7722 49.1205 67.1985C47.4221 70.6273 46.6669 74.8737 45.702 77.7608C44.74 80.6478 43.1993 83.5729 40.8152 83.4109C38.4311 83.2514 37.1479 81.187 36.4144 78.2012C35.6795 75.2129 36.1294 71.2778 36.3291 70.2691C36.8267 67.7427 35.6737 68.2604 34.9677 72.2271C34.5308 74.6737 34.0968 78.5809 35.6347 82.6704C37.1696 86.7599 39.7866 88.2851 42.0796 87.7624C44.374 87.2421 46.3906 82.1502 47.1024 79.8631C47.8127 77.5798 50.991 67.4377 52.7907 66.939C53.0424 68.0819 51.3917 71.7664 50.8637 76.0761C50.3371 80.3858 51.5653 86.1752 57.3462 87.1763C63.1271 88.1788 67.049 84.631 68.4711 82.1679C69.8946 79.7011 70.5586 77.1153 70.7192 75.8129C70.9044 79.1189 73.2885 84.2817 77.9193 85.7537L78.3967 85.8841C78.6817 88.5901 79.146 92.1227 79.5728 95.8325C78.6715 96.0957 77.7616 96.3337 76.856 96.5387C76.7402 96.1831 76.6129 95.835 76.4581 95.5148C75.0447 92.6378 72.7055 89.9862 69.4635 90.1697C66.1521 90.3558 62.5412 94.5377 62.6989 97.5918C62.803 99.646 63.998 101.332 68.3438 101.764C70.3286 101.962 72.4364 101.753 74.6136 101.304C74.9203 102.153 75.1142 102.998 75.1359 103.767C73.7586 105.291 62.3633 113.424 53.8308 114.207C45.2984 114.988 42.6958 110.755 42.6105 106.506C42.5468 103.274 44.6011 100.047 46.0449 97.8146C48.1107 96.3843 49.8062 94.5959 50.8767 93.2163C51.1675 93.3859 51.4438 93.5428 51.7071 93.6884C52.727 94.2491 53.1335 95.087 53.1335 95.087C53.3216 94.8136 54.1983 93.3201 53.8554 92.5897C53.6977 92.41 52.9267 91.9607 51.9993 91.4278C52.9729 89.1318 52.9599 86.8397 51.6984 86.3296C50.2879 85.7613 48.4463 87.3409 47.6521 88.3041C47.2398 88.8053 47.0821 89.3736 47.0792 89.8508C47.0734 90.4646 47.3787 91.019 48.1338 91.5126C48.8861 91.9987 49.5849 92.4391 50.2416 92.8366C48.3769 94.6895 43.9703 97.4045 41.2738 98.9993C41.1739 98.7651 40.779 99.0119 40.2481 99.6043L39.5175 100.031C37.3663 101.276 32.2075 104.011 31.1934 104.681C30.1778 105.352 30.8144 105.23 31.1934 105.081C31.9095 104.715 32.8498 104.272 33.9059 103.784C35.4017 103.091 37.1421 102.308 38.8434 101.522C38.3399 102.329 37.8191 103.274 37.3576 104.304C35.328 108.839 32.0469 118.238 39.1443 123.893C45.9349 129.307 57.6066 127.247 67.2863 121.621C76.9674 115.994 79.0578 114.016 80.571 111.97ZM49.0105 89.6128C48.6749 89.3787 48.6286 89.066 48.902 88.8483C49.2507 88.5673 49.6962 88.3015 50.2026 88.2117C51.276 88.0231 51.7042 89.1901 51.2731 91.0076C50.4572 90.5355 49.6181 90.0394 49.0105 89.6128ZM71.214 97.2792C66.2852 97.3007 66.058 96.4539 66.1506 95.9122C66.2418 95.373 67.7767 93.8934 69.7239 94.8693C70.547 95.2832 71.4744 96.1489 72.3322 97.2361C71.9532 97.2627 71.58 97.2766 71.214 97.2792ZM56.118 121.807C46.8058 124.212 37.7222 120.486 37.1725 113.108C36.7515 107.474 38.9229 103.229 40.3233 100.837C41.6586 100.212 42.9201 99.6043 43.9631 99.06C41.5255 102.775 40.0991 107.75 41.0524 111.965C42.1316 116.739 46.5208 119.634 53.9523 118.7C61.3101 117.777 71.2588 111.155 74.0798 108.658C74.9391 107.757 75.5062 106.944 76.2787 105.289C76.597 104.609 77.044 103.711 77.2104 102.698C77.3189 102.037 77.3768 101.331 77.3898 100.612C78.2534 100.367 79.1214 100.094 79.9952 99.8005C80.2918 102.823 80.5102 105.802 80.5233 108.379C75.9388 113.468 65.4302 119.401 56.118 121.807Z" fill="white"/>
<path d="M219 102.461C218.685 97.5246 217.924 88.59 217.499 84.0575C217.122 80.0237 216.383 74.4951 215.842 69.6285C215.706 68.4033 215.692 67.23 215.706 66.5478C215.722 66.0086 216.292 66.2162 216.862 66.7706C217.432 67.3249 218.323 68.0211 218.491 67.9363C219.048 67.6629 218.381 66.3111 217.598 64.8568C216.816 63.4 213.713 57.374 213.173 57.1449C212.898 57.0284 211.444 60.6382 211.36 61.3458C211.638 61.7812 212.348 62.4558 212.425 64.4252C212.503 66.3959 213.555 75.4558 214.314 82.783C214.841 87.8762 215.521 96.1868 216.016 102.453C215.991 102.463 216.483 108.411 216.537 109.079C216.84 112.927 216.683 117.768 216.652 118.609C216.619 119.453 217.271 119.306 217.972 117.433C218.685 115.52 219.091 111.25 219.146 107.395L219 102.461Z" fill="white"/>
<path d="M192.559 85.1803C191.604 85.4562 190.105 84.5006 190.22 82.497C190.324 80.6871 191.143 78.9923 191.458 77.9228C191.892 76.447 191.895 75.0243 191.527 75.8306C190.7 77.6329 189.159 81.1174 188.841 83.4817C188.521 85.8461 189.331 87.37 190.432 87.8902C191.804 88.542 192.792 87.5079 193.46 85.984C194.102 84.5247 193.981 82.821 193.535 83.2223C193.162 83.6412 193.023 85.0449 192.559 85.1803Z" fill="white"/>
<path d="M178.834 92.463C179.34 91.1897 179.459 89.9417 179.069 90.6265C178.191 92.1605 176.546 95.1248 176.065 97.1841C175.584 99.2434 176.167 100.637 177.093 101.165C178.248 101.825 179.198 100.979 179.917 99.6813C180.604 98.4396 180.639 96.9322 180.217 97.2587C179.852 97.603 179.61 98.827 179.194 98.9168C178.327 99.0978 177.092 98.1612 177.359 96.4044C177.603 94.8223 178.466 93.3832 178.834 92.463Z" fill="white"/>
<path d="M138.865 119.326C139.712 118.026 140.133 116.678 139.545 117.359C138.235 118.88 135.754 121.833 134.752 123.999C133.754 126.164 134.072 127.791 134.962 128.531C136.072 129.455 137.309 128.696 138.389 127.406C139.427 126.169 139.814 124.529 139.272 124.809C138.796 125.124 138.252 126.419 137.773 126.443C136.788 126.488 135.651 125.247 136.348 123.376C136.979 121.687 138.253 120.267 138.865 119.326Z" fill="white"/>
<path d="M208.939 81.39C207.968 81.6204 206.533 80.5914 206.773 78.5954C206.992 76.7943 207.919 75.1425 208.299 74.092C208.829 72.6377 208.92 71.2189 208.502 72.0036C207.565 73.7655 205.805 77.1677 205.335 79.5143C204.865 81.8596 205.575 83.4202 206.643 83.9936C207.974 84.7075 209.021 83.7253 209.788 82.2343C210.522 80.8091 210.51 79.1029 210.037 79.4826C209.639 79.8851 209.412 81.2787 208.939 81.39Z" fill="white"/>
<path d="M208.642 105.876C209.97 106.59 211.023 105.608 211.787 104.117C212.519 102.692 212.509 100.986 212.039 101.365C211.638 101.765 211.411 103.161 210.938 103.273C209.967 103.502 208.529 102.474 208.772 100.478C208.991 98.6771 209.917 97.0241 210.298 95.9748C210.827 94.5205 210.918 93.0991 210.501 93.8864C209.561 95.6483 207.804 99.0505 207.334 101.395C206.864 103.742 207.574 105.303 208.642 105.876Z" fill="white"/>
<path d="M225.616 74.598C226.255 72.8386 226.365 71.1211 225.859 72.0716C224.722 74.2031 222.595 78.3191 222.025 81.1606C221.458 83.9996 222.319 85.8868 223.611 86.5816C225.218 87.4448 226.49 86.2563 227.417 84.454C228.301 82.7288 228.288 80.6619 227.718 81.1239C227.236 81.6087 226.96 83.2946 226.387 83.43C225.215 83.7085 223.475 82.4643 223.769 80.0493C224.033 77.8698 225.154 75.8713 225.616 74.598Z" fill="white"/>
<path d="M89.9699 105.029C91.0158 102.884 91.3948 100.738 90.6252 101.881C88.9022 104.439 85.6574 109.391 84.5492 112.9C83.4396 116.41 84.2613 118.875 85.7876 119.887C87.6914 121.142 89.4549 119.78 90.8683 117.615C92.2209 115.538 92.49 112.937 91.7102 113.457C91.0375 114.014 90.456 116.107 89.7182 116.217C88.2021 116.443 86.1883 114.694 86.8914 111.687C87.5279 108.975 89.2147 106.58 89.9699 105.029Z" fill="white"/>
<path d="M236.429 126.286C237.231 125.665 244.201 122.112 245.484 121.39C245.484 121.39 246.796 119.365 246.402 119.15C246.007 118.935 243.463 121.125 241.88 121.185C240.296 121.246 238.128 120.145 238.058 119.242C238.263 118.562 240.169 117.539 240.857 117.497C241.546 117.459 241.435 118.943 241.665 119.124C241.895 119.302 242.81 118.1 242.926 117.598C243.039 117.098 242.945 115.005 241.685 115.305C239.69 115.782 236.681 119.283 236.338 120.384C235.992 121.488 237.851 122.449 239.208 122.971C239.092 123.012 238.08 123.472 237.439 124.072C237.439 124.072 236.75 124.803 236.429 126.286Z" fill="white"/>
<path d="M212.663 130.687C213.465 130.065 220.435 126.515 221.718 125.791C221.718 125.791 223.033 123.766 222.637 123.55C222.242 123.335 219.697 125.525 218.115 125.586C216.53 125.646 214.362 124.545 214.292 123.643C214.498 122.962 216.403 121.939 217.092 121.9C217.78 121.86 217.669 123.342 217.899 123.521C218.129 123.702 219.045 122.5 219.16 121.999C219.273 121.499 219.176 119.405 217.919 119.705C215.924 120.185 212.915 123.683 212.572 124.787C212.227 125.888 214.086 126.849 215.44 127.372C215.327 127.412 214.314 127.872 213.673 128.473C213.673 128.473 212.985 129.203 212.663 130.687Z" fill="white"/>
<path d="M159.127 67.0069C159.752 67.6942 163.846 72.6165 167.053 75.7111C170.259 78.8083 175.755 83.8205 179.793 87.2556C180.574 87.9214 181.403 88.6428 182.246 89.3934C183.265 96.7927 184.442 106.208 184.937 110.102C185.425 113.935 185.497 118.777 185.507 119.62C185.516 120.464 186.158 120.292 186.769 118.397C187.587 115.854 187.681 109.27 187.247 104.921C186.978 102.235 186.343 97.204 185.728 92.5652C188.112 94.7941 190.365 97.0053 191.883 98.6608C194.673 101.7 197.021 103.992 198.452 107.259C199.464 109.57 199.362 111.409 199.777 111.772C200.136 112.086 200.532 109.321 200.089 106.639C199.372 102.283 198.388 100.437 192.48 94.2182C190.226 91.8412 187.573 89.3567 184.979 87.0341C184.879 86.3177 184.788 85.6545 184.706 85.0659C184.5 83.6116 182.498 71.0381 182.34 69.6294C182.206 68.403 181.97 66.9588 181.989 66.2766C182.003 65.7336 182.368 65.945 182.941 66.4993C183.511 67.0524 184.509 68.0207 184.678 67.9359C185.237 67.6625 184.614 66.0386 183.832 64.5818C183.052 63.1275 180.366 57.3736 179.826 57.1458C179.553 57.0293 177.942 60.6379 177.86 61.3441C178.139 61.7795 178.848 62.4579 178.925 64.4248C178.946 64.9742 179.461 70.1458 180.108 75.0289C180.681 79.3437 181.39 83.4357 181.464 83.9091L181.467 83.9458C178.792 81.6371 176.435 79.6766 175.006 78.445C171.664 75.5706 164.283 68.7498 163.986 67.7283C163.92 67.4056 164.493 67.6043 165.546 67.7638C166.603 67.9245 167.544 68.265 167.375 67.7739C167.298 67.5423 166.893 66.9702 165.884 66.3804C164.875 65.7893 162.288 64.2578 160.364 63.1743C158.436 62.0922 157.481 61.1846 157.083 61.4441C156.886 61.572 157.061 65.2792 157.177 65.7412C157.659 65.7804 158.505 66.3171 159.127 67.0069Z" fill="white"/>
<path d="M164.396 60.3407C165.187 60.1761 168.937 60.266 170.298 60.5369C169.728 60.9115 165.892 62.7455 165.134 63.1822C164.38 63.6201 164.189 63.8733 164.568 63.8302C165.668 63.5416 168.146 63.1822 169.334 62.5962C170.453 62.1 172.361 59.68 173.104 58.7775C173.841 57.8751 173.841 57.4245 173.653 57.1828C172.895 56.7929 168.008 56.4018 165.652 56.9549C164.999 57.3739 163.723 59.6053 163.535 60.0698C163.347 60.5369 163.605 60.5052 164.396 60.3407Z" fill="white"/>
<path d="M185.251 60.0489C185.89 59.916 188.912 59.9881 190.008 60.2058C189.549 60.5083 186.459 61.9867 185.848 62.3411C185.236 62.6917 185.085 62.8967 185.39 62.8613C186.277 62.6309 188.274 62.3411 189.231 61.8664C190.132 61.4665 191.67 59.516 192.267 58.7908C192.862 58.0617 192.862 57.6997 192.71 57.5061C192.102 57.1884 188.163 56.8745 186.264 57.3213C185.737 57.658 184.711 59.4565 184.559 59.8312C184.405 60.2058 184.614 60.1818 185.251 60.0489Z" fill="white"/>
<path d="M202.205 59.8438C202.841 59.7109 205.863 59.7831 206.959 60.0008C206.503 60.3033 203.411 61.7816 202.799 62.1335C202.19 62.4866 202.038 62.6916 202.344 62.6562C203.231 62.4258 205.383 62.1335 206.339 61.6614C207.242 61.2614 208.311 59.3109 208.909 58.5832C209.506 57.8567 209.506 57.4921 209.351 57.301C208.744 56.9833 205.114 56.6694 203.218 57.1137C202.691 57.4529 201.662 59.2515 201.51 59.6261C201.359 60.0008 201.565 59.9767 202.205 59.8438Z" fill="white"/>
<path d="M191.628 67.6582C190.624 69.1543 191.883 70.3618 192.341 71.5705C191.722 72.1059 190.77 71.6173 190.452 71.1478C189.775 70.1846 190.002 68.2215 189.205 67.919C189.001 68.4493 188.868 69.0378 188.868 69.0378C188.868 69.0378 189.474 70.3807 189.322 71.2693C189.225 71.8059 188.725 72.4324 188.064 72.4451C186.302 72.4856 187.17 70.0175 186.49 68.6189C186.351 68.9606 186.251 69.3277 186.089 69.6479C186.213 70.0124 186.281 70.5238 186.302 70.8187C186.342 71.4047 186.293 72.0363 186.398 72.5362C186.545 73.2438 186.96 73.7133 187.593 73.7589C188.91 73.8576 189.51 72.8489 189.708 72.0211C189.936 72.8653 191.676 73.7956 192.532 72.759C193.667 71.392 192.759 70.2213 192.178 68.9353C191.758 67.9848 191.88 67.3608 191.628 67.6582Z" fill="white"/>
<path d="M142.173 63.6897C142.264 64.3048 142.599 64.7251 143.144 64.7883C144.269 64.9238 144.839 64.077 145.052 63.3733C145.201 64.1087 146.656 64.9744 147.448 64.1162C148.494 62.9809 147.769 61.938 147.332 60.8077C147.02 59.9698 147.154 59.4382 146.923 59.685C145.982 60.933 147.008 62.0253 147.342 63.0847C146.781 63.5201 145.987 63.0632 145.735 62.6493C145.2 61.7924 145.492 60.1103 144.824 59.8179C144.621 60.2685 144.478 60.7685 144.478 60.7685C144.478 60.7685 144.931 61.9494 144.754 62.7075C144.646 63.167 144.184 63.6872 143.611 63.6733C142.094 63.6416 142.965 61.5481 142.447 60.3191C142.312 60.6065 142.207 60.9216 142.049 61.1874C142.14 61.5089 142.173 61.9494 142.173 62.2063C142.185 62.7126 142.11 63.2518 142.173 63.6897Z" fill="white"/>
<path d="M178.081 121.657C178.25 121.402 178.623 120.704 178.529 120.227C178.435 119.749 177.818 117.758 176.618 117.26C175.426 116.761 174.524 117.807 173.952 119.261L173.556 119.252C173.462 119.467 173.343 119.789 173.249 120.37C173.116 121.209 172.864 121.749 171.344 123.055C170.065 124.149 165.922 126.775 163.237 128.009C160.549 129.246 158.615 130.313 157.901 130.637C157.191 130.956 157.398 131.075 158.108 130.874C158.817 130.674 162.385 129.586 163.807 129.032C165.226 128.474 166.962 127.556 169.054 126.272C171.38 124.844 172.77 123.416 173.237 122.15C173.57 121.248 173.656 120.887 173.656 120.887C173.656 120.887 174.529 121.376 176.012 121.696C177.489 122.018 177.909 121.914 178.081 121.657ZM176.076 118.828C176.734 119.065 177.135 119.743 177.253 120.154C176.498 120.171 175.108 119.808 174.516 119.555C174.872 118.903 175.491 118.62 176.076 118.828Z" fill="white"/>
<path d="M162.336 123.057C160.273 122.786 155.076 122.038 153.804 119.182C154.872 117.709 159.789 115.843 165.949 114.098C172.109 112.356 178.545 110.096 180.275 109.005C180.654 108.883 181.387 108.92 181.387 108.92C181.697 108.076 183.244 105.111 183.341 104.491C181.619 104.584 171.008 105.322 166.294 105.561C161.578 105.801 152.496 105.743 149.47 105.711C151.326 104.448 155.731 101.983 162.027 99.8791C162.843 99.6057 163.598 99.3589 164.302 99.1361C164.826 100.02 165.215 100.893 165.296 101.654C165.697 101.264 165.998 99.9715 165.897 98.645C169.567 97.5363 171.458 97.1692 172.274 96.9604C172.789 96.3288 173.701 93.7746 173.837 91.9178C173.289 90.9723 171.572 89.7952 170.044 88.7839C167.939 87.3929 165.669 86.1804 163.404 86.7107C160.307 87.4296 159.686 92.8139 160.408 93.9556C160.638 94.3163 161.183 94.9555 161.827 95.744C159.565 96.5857 157.198 97.5755 155.112 98.6159C150.465 100.932 145.277 103.466 143.764 105.903L143.33 106.103C143.209 106.333 142.251 110.103 142.112 110.51C143.078 110.478 150.294 110.491 155.32 110.343C160.343 110.191 164.735 110.04 166.455 110.04C163.907 110.611 157.231 112.959 155.311 114.34C153.392 115.724 152.185 117.829 152.153 121.438C150.364 120.775 147.038 119.26 144.204 115.632C141.044 111.589 141.698 107.432 140.434 101.975C138.597 94.0568 134.673 87.3714 132.23 85.326C131.407 88.1207 131.301 90.2268 131.301 90.2268C131.301 90.2268 134.362 96.6313 135.912 100.719C137.461 104.809 138.785 108.838 138.72 109.74C137.444 112.388 129.891 117.934 123.596 121.181C117.627 124.259 112.369 124.591 110.505 122.398C110.139 121.971 109.89 121.464 109.75 120.891C110.56 120.533 111.373 120.172 112.206 119.811C117.574 117.498 127.106 112.627 129.339 110.072C131.749 106.975 131.716 102.614 130.303 100.118C128.895 97.6236 126.688 94.7353 126.515 93.7138C126.381 93.2316 127.949 93.91 128.875 93.9556C129.323 93.9239 129.099 93.3531 128.137 92.4507C127.368 91.7317 124.392 89.3991 123.255 88.489C122.97 88.2574 122.757 88.3511 122.699 88.5953C122.478 89.5269 122.025 91.5216 121.85 92.5064L121.971 93.0025C122.298 93.186 122.675 93.3923 122.857 93.9075C123.114 94.6378 124.016 96.6756 125.493 99.2475C126.973 101.818 129.111 104.656 129.321 106.089C127.582 108.187 118.813 112.656 110.272 116.34C110.8 114.79 111.634 113.039 112.739 111.093C113.053 110.764 113.339 110.358 113.605 109.9C114.457 108.426 114.54 106.625 114.023 107.006C113.581 107.41 113.263 108.872 112.756 108.971C111.719 109.172 110.264 108.026 110.63 105.932C110.961 104.042 112.029 102.336 112.49 101.244C113.129 99.7323 113.305 98.2387 112.82 99.0513C111.731 100.866 109.686 104.382 109.059 106.839C108.434 109.292 109.098 110.969 110.193 111.618C110.602 111.865 110.994 111.942 111.367 111.894C110.618 113.244 109.692 114.899 109.017 116.874C105.582 118.328 102.24 119.628 99.4744 120.564C89.5314 123.932 82.4457 125.917 77.4894 127.39L77.2955 127.473C77.6601 126.358 77.6109 125.406 77.2203 125.692C76.7776 126.098 76.4608 127.56 75.9545 127.656C74.9172 127.857 73.4619 126.713 73.8264 124.617C74.1592 122.728 75.2268 121.024 75.6883 119.93C76.3248 118.42 76.5013 116.924 76.0181 117.738C74.9273 119.553 72.8847 123.069 72.2568 125.525C71.6304 127.979 72.2944 129.656 73.3881 130.307C74.7509 131.117 75.9125 130.123 76.8037 128.586L77.1162 127.955C77.4257 127.955 77.948 127.887 78.7277 127.722C80.999 127.239 86.6772 126.459 94.4848 125.496C100.266 124.784 104.257 123.282 108.115 121.61C108.098 122.014 108.094 122.425 108.112 122.849C108.322 127.862 111.794 129.278 116.542 128.34C121.122 127.43 127.509 123.455 131.337 120.775C135.329 117.98 137.632 115.483 138.219 114.612C139.284 112.477 139.576 110.117 139.648 109.005C139.997 112.07 140.279 116.313 143.343 119.952C146.164 123.301 151.945 127.974 162.818 128.102C162.854 126.878 162.336 123.057 162.336 123.057ZM161.617 91.9912C163.174 90.3382 166.496 91.4191 168.988 93.5151C167.711 93.7986 165.976 94.3037 164.062 94.9504C162.925 93.6531 161.656 92.4026 161.617 91.9912Z" fill="white"/>
<path d="M100.488 69.3268C101.194 69.0218 103.354 68.1029 105.682 66.8195C108.005 65.5449 110.188 64.0008 111.256 62.9743C111.665 62.5806 112.03 62.2731 112.263 61.9073C112.96 62.1807 113.44 62.4642 113.74 62.5756C114.19 62.7401 114.79 62.9768 115.181 61.7643C115.57 60.553 115.053 59.7708 114.293 58.8367C113.649 58.0532 112.627 56.8761 111.798 56.5837C111.095 56.3344 110.761 57.8203 110.868 57.7836H111.338L111.43 57.8254C110.462 58.2874 109.712 59.7252 109.637 60.2302C109.56 60.7795 109.67 61.1846 111.059 61.5225L111.618 61.6782C110.459 62.9768 108.299 64.3197 106.828 65.2715C104.74 66.6258 101.777 68.3181 100.934 68.8066C100.091 69.2927 100.161 69.4458 100.488 69.3268ZM113.034 59.786L113.109 59.1367C114.086 60.1897 114.81 61.4428 114.738 61.62C114.29 61.6541 113.731 61.2618 112.755 60.8669C112.863 60.553 112.954 60.2062 113.034 59.786ZM110.23 59.7872C110.225 59.5898 110.601 59.0405 111.396 58.7405C112.191 58.438 112.542 59.2822 112.612 60.31L112.376 60.7213L111.66 60.4872C110.902 60.2771 110.389 60.1581 110.23 59.7872Z" fill="white"/>
<path d="M152.552 89.1506C153.697 88.4342 156.847 86.2825 158.633 84.8725C159.876 83.8928 161.336 82.4499 162.327 81.2298C162.949 81.6108 163.529 81.9487 164.057 82.2423C165.075 82.8056 165.485 83.641 165.485 83.641C165.673 83.3676 166.549 81.8715 166.207 81.1437C166.001 80.9058 164.748 80.2134 163.468 79.4717C164.118 78.0921 165.012 75.7063 163.731 74.8709C162.636 74.1621 160.789 75.3354 159.934 76.858C159.228 78.1187 159.137 79.1882 160.484 80.0641C160.863 80.3109 161.226 80.5438 161.582 80.7653C160.223 82.1715 157.72 84.2523 155.94 85.6686C153.728 87.4203 151.636 89.1379 151.271 89.548L151.166 89.7075C150.682 88.4342 150.814 87.6482 150.455 88.0709C148.906 90.3707 150.847 92.2338 151.553 94.0944C150.599 94.9146 149.136 94.1615 148.646 93.4438C147.601 91.9579 147.95 88.9404 146.727 88.4734C146.412 89.2885 146.206 90.196 146.206 90.196C146.206 90.196 147.137 92.2629 146.901 93.6273C146.755 94.4526 145.982 95.4183 144.968 95.4348C142.254 95.5006 143.592 91.7009 142.545 89.5493C142.332 90.077 142.18 90.6416 141.926 91.1301C142.118 91.6959 142.224 92.4806 142.251 92.935C142.321 93.8375 142.243 94.8057 142.403 95.5803C142.627 96.6688 143.267 97.3928 144.243 97.4599C146.267 97.6156 147.192 96.0588 147.498 94.7893C147.847 96.0879 150.528 97.5156 151.846 95.9233C153.592 93.8185 152.194 92.0161 151.302 90.0365L151.196 89.7796C151.32 89.8214 151.788 89.6277 152.552 89.1506ZM160.468 77.2985C161.139 76.1201 162.552 76.0202 162.976 76.6378C163.313 77.1289 163.341 78.087 162.834 79.0983C161.587 78.3579 160.475 77.6327 160.468 77.2985Z" fill="white"/>
<path d="M108.37 81.6575C105.986 81.498 104.703 79.4311 103.969 76.4453C103.235 73.4595 103.684 69.5219 103.884 68.5132C104.084 67.5057 102.96 68.0259 102.523 70.4725C102.089 72.9165 101.652 76.825 103.19 80.917C104.725 85.004 107.342 86.5292 109.635 86.0064C111.928 85.4862 113.946 80.3943 114.657 78.1097C115.368 75.8239 118.546 66.502 120.346 66.0007C120.597 67.1437 118.947 70.0105 118.419 74.3202C117.894 78.6299 118.808 84.2826 124.589 85.285C130.37 86.2887 134.292 82.7397 135.714 80.2728C137.137 77.8097 137.801 75.2201 137.962 73.919C138.147 77.2263 140.531 82.3903 145.162 83.8623C149.636 85.285 153.055 83.9826 154.565 82.1385C155.906 80.5006 156.998 77.1275 157.092 74.5404C157.184 71.9559 154.823 67.2259 154.295 65.7198C153.765 64.2174 153.492 63.1744 153.445 62.6542C153.401 62.134 154.64 63.2567 155.42 63.4769C155.948 63.5769 155.763 62.4947 155.121 61.7518C154.48 61.0113 151.011 56.0333 150.768 56.3801C150.619 56.5877 149.23 60.2494 149.139 60.8101C149.688 61.1518 150.325 62.0935 150.373 62.996C150.416 63.8984 151.335 67.8664 152.184 70.0712C153.033 72.2761 154.684 76.5061 154.8 77.6693C153.149 78.7704 149.431 80.1716 145.9 78.7514C142.368 77.3263 141.241 75.2619 140.852 71.5736C140.603 69.2169 140.579 64.8755 139.691 61.2455C139.19 59.1938 138.135 57.1079 136.883 56.0004C136.587 56.6801 135.257 60.8709 135.257 60.8709C135.691 62.0733 137.04 66.1223 136.997 69.6308C136.949 73.1368 136.657 76.5681 132.502 78.9324C128.35 81.2968 122.435 80.3551 120.897 76.6656C119.359 72.9773 122.778 64.6793 122.733 62.4947C122.686 60.3101 122.271 60.0076 121.309 60.3696C120.346 60.7304 118.371 62.8365 116.676 66.2627C114.977 69.6915 114.223 73.1178 113.257 76.0049C112.295 78.8919 110.754 81.817 108.37 81.6575Z" fill="white"/>
<path d="M39.1468 68.8697C42.0806 68.6684 44.5602 66.5636 45.2011 66.0041C45.8434 65.4409 46.1892 64.6017 45.7291 64.9207C42.3352 67.7875 37.7942 67.8685 37.5395 67.3863C37.6553 66.9053 38.8502 66.1231 40.5935 65.022C41.6524 64.3524 42.5956 63.7246 43.3016 62.8348L43.494 62.8665C44.7859 63.1348 46.2774 63.6689 46.7331 63.2411C47.4752 62.5488 47.5736 61.4147 46.7693 60.192C46.0893 59.1542 44.5038 58.1884 43.1266 57.491C41.7522 56.7974 41.486 57.9049 41.3096 58.2998C41.1403 58.6681 41.2097 58.982 41.5005 58.9896C41.0578 59.5604 40.7425 60.2958 40.6267 60.9034C40.5515 61.2957 40.6123 61.6172 40.7815 61.8817C40.8307 61.9564 41.0853 62.2513 41.5671 62.426L42.1645 62.6019C41.136 63.5006 39.9511 64.2043 39.3291 64.56C38.2065 65.2017 36.8755 66.3244 36.4632 67.485C36.0495 68.6495 36.2101 69.0709 39.1468 68.8697ZM44.3331 60.6806L44.4459 60.0882V59.7085C45.3761 60.349 46.8633 61.5615 46.7722 62.288C46.1834 62.1615 45.0608 61.9374 43.9946 61.678C44.1306 61.3755 44.2419 61.0438 44.3331 60.6806ZM41.5757 60.8654C40.8915 60.349 41.5584 59.8338 42.1645 59.5022C42.9472 59.0744 43.4058 59.4275 43.8065 60.5502C43.6662 60.8717 43.4694 61.1843 43.238 61.4843C42.6289 61.3058 41.771 61.0198 41.5757 60.8654Z" fill="white"/>
<path d="M47.9479 100.225C47.1045 100.917 46.7776 103.17 46.9497 103.305C47.1204 103.441 49.7563 104.283 50.1686 104.465L50.3566 103.786C51.6123 104.853 53.004 110.177 53.3136 110.192C53.6232 110.206 54.0717 109.59 54.3653 108.176C54.6359 106.865 54.9064 104.903 55.1885 103.305C55.4518 101.844 55.8612 101.007 56.7899 100.84C57.7201 100.675 58.4088 101.803 58.6489 102.57C58.6489 102.57 59.3014 101.096 59.4402 100.179C59.2854 99.6969 57.8388 97.8794 56.6525 98.4806C55.4648 99.0831 54.7212 101.633 54.4811 103.228C54.2395 104.821 54.0543 106.795 53.7621 107.111C53.4554 105.752 52.4731 103.319 51.2868 101.952C49.953 100.421 48.3935 99.859 47.9479 100.225Z" fill="white"/>
<path d="M36.7046 97.5026C37.8055 97.2165 40.2837 96.8571 41.4699 96.2711C42.5882 95.7749 44.4964 93.3549 45.2371 92.4524C45.9763 91.55 45.9778 91.0969 45.7897 90.8577C45.0331 90.4653 40.1448 90.0767 37.7867 90.6298C37.1357 91.0462 35.8612 93.2777 35.6732 93.7447C35.4822 94.2092 35.7426 94.1801 36.5325 94.0156C37.3238 93.8485 41.075 93.9384 42.432 94.2092C41.8663 94.5864 38.0298 96.4204 37.2717 96.8571C36.5166 97.2925 36.3256 97.5482 36.7046 97.5026Z" fill="white"/>
<path d="M263.98 110.422C263.867 107.717 262.467 103.564 257.143 97.1929C255.306 94.9931 252.721 92.1301 249.994 89.1975C249.919 88.1976 249.843 87.2837 249.775 86.499C249.418 82.4627 248.207 74.228 247.686 69.3601C247.559 68.1324 247.549 66.8262 247.568 66.144C247.587 65.6022 247.999 65.6744 248.566 66.2313C249.133 66.7869 250.007 67.5983 250.189 67.5426C250.577 67.416 250.24 66.187 249.466 64.7302C248.693 63.2708 245.772 57.3689 245.236 57.1398C244.959 57.0233 243.582 60.4888 243.497 61.1976C243.77 61.633 244.476 62.3102 244.544 64.2809C244.617 66.2503 245.872 77.8821 246.594 85.2118L246.633 85.6206C242.556 81.3134 238.717 77.3859 237.137 75.7937C236.864 75.5178 236.563 75.2039 236.239 74.8672C235.981 72.9066 235.744 71.0384 235.581 69.4956C235.448 68.2704 235.439 66.9616 235.462 66.2794C235.475 65.739 235.89 65.8124 236.457 66.3693C237.027 66.9249 237.898 67.7362 238.08 67.678C238.468 67.554 238.131 66.325 237.356 64.8656C236.585 63.4063 233.539 57.3689 233 57.1398C232.726 57.0233 231.285 60.7647 231.2 61.4685C231.476 61.9064 232.181 62.5836 232.25 64.5543C232.278 65.3909 232.508 67.9273 232.815 71.1283C230.112 68.0894 227.466 64.9074 227.278 64.2606C227.212 63.9417 227.783 64.1378 228.841 64.2998C229.894 64.4593 230.882 64.7593 230.713 64.2657C230.633 64.0366 230.231 63.4645 229.223 62.8721C228.213 62.281 225.626 60.7495 223.702 59.6686C221.774 58.5865 220.819 57.6764 220.421 57.9359C220.224 58.0637 220.399 61.7735 220.512 62.2329C220.997 62.2747 221.892 62.6152 222.462 63.3366C223.038 64.0581 226.724 68.9488 229.639 72.2561C230.478 73.2079 231.792 74.6837 233.33 76.3873C233.631 79.4339 233.946 82.5817 234.206 85.2118C234.798 91.2112 236.925 107.034 236.945 112.176C235.375 113.57 232.165 115.514 228.862 115.554C225.56 115.594 223.748 114.771 222.417 112.447C222.007 111.727 221.625 111.003 221.246 110.347C220.346 108.789 218.338 107.915 216.402 108.344L216.107 108.418L215.58 108.658C214.27 109.307 212.914 110.395 211.589 112.084C209.298 115.013 207.834 118.19 206.138 120.941C204.372 123.807 203.016 125.729 199.917 125.27C197.736 124.946 196.079 123.175 195.058 120.997C197.927 119.119 200.01 116.668 201.533 113.272C203.517 108.859 204.224 103.883 204.048 98.289C203.878 93.0237 201.342 80.6363 200.673 75.8886C200.004 71.1384 199.044 67.2401 199.155 66.2262C199.259 65.2479 200.905 67.5514 201.749 67.7236C202.18 67.6324 201.949 66.163 201.13 64.9213C200.574 64.0771 198.815 60.2369 197.664 58.3852C197.122 57.5094 196.992 57.0018 196.741 56.898C196.492 56.7904 194.575 60.6647 194.806 61.0862C195.373 61.8532 195.761 62.219 195.88 63.5936C196.001 64.9681 197.315 75.0583 198.464 82.4893C199.329 88.0963 201.24 98.2814 201.486 105.81C201.567 108.267 201.196 110.03 200.875 111.014C200.051 112.523 198.707 114.199 193.985 117.38C193.256 112.885 194.048 109.234 193.357 108.896C192.577 108.975 192.453 111.07 192.364 113.655C192.321 114.848 192.376 116.501 192.613 118.277C186.814 121.945 179.152 125.285 175.554 127.069C173.443 128.117 174.204 128.361 175.991 127.838C177.778 127.313 187.596 124.876 192.837 122.268L193.402 121.972C193.668 122.846 193.99 123.693 194.387 124.474C196.15 127.942 198.67 130.001 201.4 129.8C203.696 129.633 205.361 127.308 206.814 124.535C208.282 121.727 210.763 116.396 213.196 114.413C214.131 113.648 215.097 113.043 216.038 112.68C216.038 112.68 217.7 112.155 219.229 113.1C219.777 113.442 220.187 113.928 220.446 114.472C221.049 115.722 221.762 117.311 223.22 118.643C225.79 120.984 229.921 120.501 233.02 119.139C236.114 117.776 237.694 115.649 238.383 113.123C239.558 108.801 239.369 104.372 239.145 100.438C238.886 95.9487 238.128 91.3606 237.697 86.499C237.558 84.9359 237.288 82.7614 236.977 80.4034C239.994 83.6993 243.128 87.0445 245.029 88.8735C245.684 89.5051 246.376 90.2062 247.086 90.9467C247.653 98.3055 248.198 107.513 248.486 111.378C248.771 115.228 248.588 120.068 248.554 120.91C248.52 121.751 249.014 121.607 249.725 119.739C250.677 117.232 251.274 110.656 251.066 106.296C250.941 103.705 250.668 98.9814 250.373 94.5134C252.715 97.1474 254.938 99.8066 256.385 101.601C258.957 104.788 261.32 108.578 262.146 110.942C262.97 113.309 263.062 114.01 263.222 114.432C263.383 114.853 264.093 113.127 263.98 110.422Z" fill="white"/>
<path d="M220.545 177.22C220.313 176.591 219.602 176.13 218.751 176.13C217.9 176.13 217.19 176.591 216.956 177.22H208.9C208.818 176.374 208.898 175.524 209.151 174.696L225.784 174.687L226.247 175.426C226.665 176.092 227.194 176.693 227.807 177.22L220.545 177.22ZM231.557 169.906H211.569C213.105 168.857 213.91 167.326 213.694 165.777C213.556 164.801 212.534 164.072 211.288 163.973H210.662C209.147 164.113 208.048 165.147 208.207 166.282L208.268 166.719L208.342 167.39C208.424 168.233 208.345 169.08 208.094 169.906H60.3477C62.5416 172.926 66.5416 174.779 70.861 174.776L205.682 174.698C204.14 175.748 203.332 177.282 203.549 178.833C203.709 179.969 205.065 180.778 206.581 180.638C208.095 180.497 209.194 179.464 209.036 178.327L208.975 177.891H216.898C217.038 178.623 217.81 179.185 218.751 179.185C219.692 179.185 220.464 178.623 220.605 177.891H228.665V177.874C230.347 179.004 232.486 179.653 234.748 179.653C236.877 179.653 238.602 178.254 238.602 176.527V175.623C238.602 172.466 235.448 169.905 231.557 169.905" fill="white"/>
</svg>
