<svg width="800" height="274" viewBox="0 0 800 274" fill="none" xmlns="http://www.w3.org/2000/svg">
<mask id="mask0_108_4657" style="mask-type:alpha" maskUnits="userSpaceOnUse" x="0" y="0" width="800" height="274">
<rect width="800" height="274" rx="16" fill="#D9D9D9"/>
</mask>
<g mask="url(#mask0_108_4657)">
<path d="M0 16C0 7.16344 7.16344 0 16 0H787C795.837 0 803 7.16344 803 16V258C803 266.837 795.837 274 787 274H16C7.16346 274 0 266.837 0 258V16Z" fill="#ECE1CD"/>
<mask id="mask1_108_4657" style="mask-type:alpha" maskUnits="userSpaceOnUse" x="345" y="34" width="107" height="107">
<rect x="345.401" y="34" width="106.589" height="106.589" fill="#7A2BDE"/>
</mask>
<g mask="url(#mask1_108_4657)">
<path d="M363.166 113.942C360.723 113.942 358.632 113.072 356.893 111.333C355.153 109.593 354.284 107.502 354.284 105.06V51.7652C354.284 49.3226 355.153 47.2315 356.893 45.492C358.632 43.7525 360.723 42.8828 363.166 42.8828H434.225C436.668 42.8828 438.759 43.7525 440.498 45.492C442.238 47.2315 443.108 49.3226 443.108 51.7652V131.707L425.343 113.942H363.166Z" fill="#AD7C32"/>
</g>
<path d="M400.491 100.158C398.457 100.158 396.468 99.9135 394.525 99.4245C392.613 98.9354 390.882 98.1559 389.334 97.086C387.785 96.0467 386.555 94.7017 385.645 93.051C384.734 91.4003 384.278 89.4134 384.278 87.0902C384.278 84.5836 384.779 82.291 385.781 80.2124C386.783 78.1032 388.195 76.2385 390.017 74.6184C391.838 72.9983 393.994 71.6533 396.484 70.5834C399.004 69.483 401.751 68.7035 404.727 68.245L406.23 74.2975C403.558 74.7866 401.235 75.4285 399.262 76.2233C397.319 77.018 395.709 77.9504 394.434 79.0202C393.159 80.0901 392.203 81.2364 391.565 82.4592C390.958 83.7124 390.654 85.0269 390.654 86.4024C390.654 87.5029 390.852 88.4658 391.246 89.2911C391.671 90.1165 392.233 90.8043 392.931 91.3545C393.63 91.9353 394.404 92.3938 395.254 92.73C396.104 93.0969 396.985 93.3567 397.895 93.5095C398.806 93.6624 399.672 93.7388 400.491 93.7388C402.586 93.7388 404.529 93.5401 406.321 93.1427C408.143 92.7453 409.736 92.2562 411.103 91.6754L412.924 97.5904C412.196 97.9572 411.163 98.3393 409.828 98.7367C408.522 99.1341 407.049 99.4703 405.41 99.7454C403.801 100.021 402.161 100.158 400.491 100.158ZM391.428 74.756C390.366 74.328 389.379 73.7167 388.468 72.9219C387.588 72.1271 386.874 71.149 386.328 69.9874C385.812 68.7952 385.554 67.4349 385.554 65.9065C385.554 63.9807 386.054 62.3148 387.056 60.9086C388.058 59.5025 389.394 58.4173 391.064 57.6531C392.734 56.8889 394.556 56.5068 396.529 56.5068C397.501 56.5068 398.396 56.568 399.216 56.6902C400.066 56.8125 400.932 56.9959 401.812 57.2405L400.81 63.3388C400.173 63.186 399.52 63.0637 398.852 62.972C398.184 62.8803 397.592 62.8344 397.076 62.8344C396.013 62.8344 395.087 62.9873 394.298 63.293C393.539 63.5986 392.947 64.0419 392.521 64.6227C392.127 65.1729 391.929 65.8301 391.929 66.5943C391.929 67.2057 392.112 67.7865 392.476 68.3367C392.871 68.8869 393.372 69.376 393.979 69.804C394.586 70.2013 395.254 70.5376 395.983 70.8127C396.711 71.0573 397.425 71.1948 398.123 71.2254L391.428 74.756Z" fill="white"/>
<mask id="mask2_108_4657" style="mask-type:alpha" maskUnits="userSpaceOnUse" x="298" y="119" width="107" height="108">
<rect width="106.589" height="106.589" transform="matrix(-1 0 0 1 404.589 119.599)" fill="#10AED0"/>
</mask>
<g mask="url(#mask2_108_4657)">
<path d="M386.824 199.54C389.267 199.54 391.358 198.67 393.097 196.93C394.837 195.191 395.707 193.1 395.707 190.657V137.363C395.707 134.92 394.837 132.829 393.097 131.09C391.358 129.35 389.267 128.48 386.824 128.48H315.765C313.322 128.48 311.231 129.35 309.492 131.09C307.752 132.829 306.883 134.92 306.883 137.363V217.304L324.647 199.54H386.824Z" fill="black"/>
</g>
<path d="M350.762 142.656C350.445 143.65 350.234 144.592 350.022 145.43C349.019 150.298 348.121 157.836 348.121 164.327C348.121 172.597 349.653 178.46 351.396 183.747L345.322 185.526C343.738 180.815 342.206 173.068 342.206 165.374C342.206 158.516 343.157 150.822 343.738 145.639C343.843 144.592 343.949 143.389 343.896 142.446L350.762 142.656ZM341.309 148.414C351.343 148.414 359.317 147.943 367.398 146.006L367.45 152.025C360.215 153.334 349.125 154.119 341.15 154.119C338.351 154.119 334.232 153.858 331.75 153.753L331.591 147.733C333.492 147.995 338.087 148.414 341.309 148.414ZM364.123 156.108C363.701 157.051 362.909 159.458 362.539 160.558C359.529 169.98 354.089 177.046 349.072 180.711C345.639 183.223 341.044 185.526 336.45 185.526C332.595 185.526 329.373 183.223 329.373 177.884C329.373 170.503 336.027 162.809 344.424 159.773C347.91 158.516 352.241 157.731 356.201 157.731C366.077 157.731 373.365 163.384 373.365 171.55C373.365 178.983 368.929 186.155 355.99 188.144L352.452 182.595C362.645 181.496 366.817 176.418 366.817 171.236C366.817 166.787 362.961 163.018 355.832 163.018C351.026 163.018 347.223 164.379 344.636 165.531C339.354 167.991 335.605 173.016 335.605 176.523C335.605 178.25 336.291 179.14 338.034 179.14C340.516 179.14 344.055 177.413 347.276 174.429C351.132 170.922 354.723 166.263 356.835 159.04C357.205 157.94 357.575 155.69 357.627 154.538L364.123 156.108Z" fill="white"/>
<mask id="mask3_108_4657" style="mask-type:alpha" maskUnits="userSpaceOnUse" x="398" y="136" width="108" height="107">
<rect x="398.965" y="136.267" width="106.589" height="106.589" fill="#D9D9D9"/>
</mask>
<g mask="url(#mask3_108_4657)">
<path d="M496.672 233.972L478.907 216.208H416.73C414.287 216.208 412.196 215.338 410.457 213.598C408.717 211.859 407.848 209.768 407.848 207.325V154.031C407.848 151.588 408.717 149.497 410.457 147.758C412.196 146.018 414.287 145.148 416.73 145.148H487.789C490.232 145.148 492.323 146.018 494.062 147.758C495.802 149.497 496.672 151.588 496.672 154.031V233.972Z" fill="#00802F"/>
</g>
<path d="M461.684 198.674L458.743 189.369H445.722L442.834 198.674H435.798L448.085 162.185H456.696L468.877 198.674H461.684ZM452.338 168.458H452.075L447.402 183.462H457.063L452.338 168.458Z" fill="white"/>
</g>
</svg>
