<svg width="123" height="64" viewBox="0 0 123 64" fill="none" xmlns="http://www.w3.org/2000/svg">
<rect width="123" height="64" fill="#AD7C32"/>
<path d="M45.8145 18.0293H52.2209H59.9594H61.2775C63.0829 18.0293 64.7313 18.3271 66.2228 18.9226C67.7142 19.5182 68.9832 20.4115 70.0298 21.6026C71.0764 22.7667 71.8875 24.242 72.4632 26.0287C73.0388 27.7883 73.3266 29.8456 73.3266 32.2008C73.3266 34.5559 73.0388 36.6268 72.4632 38.4135C71.8875 40.1731 71.0764 41.6484 70.0298 42.8395C68.9832 44.0035 67.7142 44.8833 66.2228 45.4789C64.7313 46.0744 63.0829 46.3722 61.2775 46.3722H60.1884H52.6788H45.8145V18.0293ZM61.2775 40.8904C63.0568 40.8904 64.4566 40.3761 65.4771 39.3474C66.4975 38.3187 67.0077 36.6674 67.0077 34.3935V30.008C67.0077 27.7341 66.4975 26.0828 65.4771 25.0541C64.4566 24.0254 63.0568 23.5111 61.2775 23.5111H59.9594H52.2209H51.7801V40.8904H52.6788H60.1884H61.2775Z" fill="#FFFBF4"/>
<path d="M42.3242 18.0059V38.0564C42.3242 39.35 42.1122 40.5358 41.6882 41.6138C41.2907 42.6648 40.6945 43.5676 39.8995 44.3222C39.1045 45.0499 38.1373 45.6293 36.9978 46.0605C35.8849 46.4647 34.6129 46.6668 33.182 46.6668C31.804 46.6668 30.585 46.4782 29.5251 46.1009C28.4916 45.7236 27.5906 45.1846 26.8222 44.4839C26.0802 43.7832 25.4707 42.9478 24.9937 41.9776C24.5167 41.0074 24.1855 39.9294 24 38.7436L29.6443 37.6117C30.0948 40.0642 31.2475 41.2904 33.1025 41.2904C33.9769 41.2904 34.7189 41.0074 35.3284 40.4415C35.9644 39.8755 36.2824 38.9862 36.2824 37.7734V22.9376H27.8556V18.0059H42.3242Z" fill="#FFFBF4"/>
<path fill-rule="evenodd" clip-rule="evenodd" d="M99.1793 46.3722L98.1677 46.3722C95.6679 46.372 89.398 46.3714 89.3307 46.3704C87.578 46.3453 85.9917 46.0581 84.5718 45.5086C83.0841 44.9067 81.8182 44.0299 80.7741 42.8784C79.7301 41.7007 78.9209 40.2483 78.3467 38.521C77.7725 36.7676 77.4854 34.7262 77.4854 32.397C77.4854 30.094 77.7725 28.0527 78.3467 26.2731C78.9209 24.4673 79.7301 22.9625 80.7741 21.7586C81.8182 20.5286 83.0841 19.5995 84.5718 18.9714C85.9645 18.3835 87.5173 18.0707 89.2301 18.0331C89.3244 18.0311 95.6541 18.0298 98.1677 18.0294L99.1793 18.0293V23.3289L98.1677 23.3292C95.654 23.33 89.3237 23.3326 89.2301 23.3369C87.6438 23.4101 86.352 23.9832 85.3549 25.0561C84.3108 26.1815 83.7888 27.8302 83.7888 30.0024V34.3991C83.7888 36.5713 84.3108 38.2331 85.3549 39.3846C86.373 40.4553 87.6983 41.0166 89.3307 41.0687C89.3977 41.0708 95.6679 41.0721 98.1677 41.0725L99.1793 41.0726V46.3722Z" fill="#FFFBF4"/>
<rect x="62.7275" y="46.0508" width="25.504" height="5.2672" fill="#FFFBF4"/>
<mask id="mask0_352_362" style="mask-type:alpha" maskUnits="userSpaceOnUse" x="70" y="12" width="11" height="17">
<path d="M70.7887 18.224C70.192 15.2612 72.4574 12.4941 75.4797 12.4941C78.5019 12.4941 80.7673 15.2612 80.1707 18.224L78.5667 26.1889C78.2707 27.6589 76.9792 28.7162 75.4797 28.7162C73.9802 28.7162 72.6887 27.6589 72.3926 26.1889L70.7887 18.224Z" fill="black"/>
</mask>
<g mask="url(#mask0_352_362)">
<rect x="69.2871" y="12.0625" width="11.6481" height="14.4137" fill="#FFFBF4"/>
</g>
</svg>
