<svg width="118" height="151" viewBox="0 0 118 151" fill="none" xmlns="http://www.w3.org/2000/svg">
<rect width="118" height="150.51" rx="12" fill="white"/>
<path d="M91.1605 127.383H88.2712V114.115H94.563C95.1713 114.115 95.7225 114.216 96.2167 114.419C96.7109 114.622 97.1291 114.913 97.4713 115.293C97.8261 115.661 98.0986 116.104 98.2887 116.624C98.4787 117.144 98.5738 117.72 98.5738 118.354C98.5738 119.253 98.371 120.039 97.9655 120.711C97.5727 121.382 96.9707 121.87 96.1597 122.174L98.7639 127.383H95.5514L93.2324 122.517H91.1605V127.383ZM94.2018 120.083C94.6327 120.083 94.9685 119.976 95.2093 119.76C95.4627 119.532 95.5894 119.203 95.5894 118.772V117.936C95.5894 117.505 95.4627 117.182 95.2093 116.966C94.9685 116.738 94.6327 116.624 94.2018 116.624H91.1605V120.083H94.2018Z" fill="black"/>
<path d="M76.7243 127.383V114.115H85.7533V116.681H79.6135V119.399H84.8789V121.946H79.6135V124.817H85.7533V127.383H76.7243Z" fill="black"/>
<path d="M65.1785 127.383V114.115H74.2075V116.681H68.0678V119.399H73.3331V121.946H68.0678V124.817H74.2075V127.383H65.1785Z" fill="black"/>
<path d="M52.4992 114.115H58.943C60.0455 114.115 60.9009 114.425 61.5092 115.046C62.1301 115.667 62.4406 116.491 62.4406 117.517C62.4406 118.024 62.3709 118.455 62.2315 118.81C62.1048 119.165 61.9273 119.456 61.6992 119.684C61.4838 119.912 61.224 120.083 60.9199 120.198C60.6284 120.299 60.3116 120.356 59.9695 120.369V120.483C60.2863 120.483 60.6158 120.54 60.9579 120.654C61.3127 120.768 61.6359 120.952 61.9273 121.205C62.2188 121.446 62.4596 121.763 62.6497 122.155C62.8524 122.548 62.9538 123.03 62.9538 123.6C62.9538 124.12 62.8651 124.614 62.6877 125.083C62.5229 125.539 62.2885 125.938 61.9844 126.28C61.6802 126.622 61.3191 126.895 60.9009 127.098C60.4827 127.288 60.0265 127.383 59.5323 127.383H52.4992V114.115ZM55.3884 124.95H58.7149C59.0951 124.95 59.3929 124.848 59.6083 124.646C59.8364 124.43 59.9505 124.132 59.9505 123.752V123.106C59.9505 122.726 59.8364 122.434 59.6083 122.231C59.3929 122.016 59.0951 121.908 58.7149 121.908H55.3884V124.95ZM55.3884 119.551H58.2587C58.6389 119.551 58.9367 119.444 59.1521 119.228C59.3675 119.013 59.4753 118.715 59.4753 118.335V117.764C59.4753 117.384 59.3675 117.086 59.1521 116.871C58.9367 116.656 58.6389 116.548 58.2587 116.548H55.3884V119.551Z" fill="black"/>
<path d="M39.246 114.115H44.2453C45.1196 114.115 45.918 114.254 46.6403 114.533C47.3626 114.812 47.9772 115.23 48.4841 115.788C48.991 116.332 49.3839 117.023 49.6627 117.859C49.9414 118.683 50.0808 119.646 50.0808 120.749C50.0808 121.851 49.9414 122.821 49.6627 123.657C49.3839 124.481 48.991 125.171 48.4841 125.729C47.9772 126.274 47.3626 126.686 46.6403 126.965C45.918 127.243 45.1196 127.383 44.2453 127.383H39.246V114.115ZM44.2453 124.817C45.107 124.817 45.7849 124.576 46.2792 124.094C46.7734 123.613 47.0205 122.84 47.0205 121.775V119.722C47.0205 118.658 46.7734 117.885 46.2792 117.403C45.7849 116.922 45.107 116.681 44.2453 116.681H42.1353V124.817H44.2453Z" fill="black"/>
<path d="M34.4081 127.383L33.4577 124.227H29.0287L28.0783 127.383H25.151L29.5229 114.115H33.0965L37.4114 127.383H34.4081ZM31.2717 116.738H31.1767L29.713 121.775H32.7544L31.2717 116.738Z" fill="black"/>
<path d="M21.9085 116.681V127.383H19.0192V116.681H15.4266V114.115H25.5011V116.681H21.9085Z" fill="black"/>
<path d="M93.6867 68.171C98.7069 68.0395 102.738 63.4716 102.738 57.8521C102.738 52.2326 98.5751 47.5332 93.4561 47.5332C88.337 47.5332 84.1627 52.1559 84.1627 57.8521C84.1627 63.5483 88.2052 68.0395 93.2254 68.171H93.6867Z" fill="black"/>
<path d="M66.9912 74.4573C66.9912 80.1645 71.1546 84.7762 76.2736 84.7762C81.3926 84.7762 85.5559 80.1645 85.5559 74.4573C85.5559 68.7792 81.4349 64.1854 76.3517 64.1388C76.3257 64.1385 76.2997 64.1384 76.2736 64.1384C76.2475 64.1384 76.2215 64.1385 76.1955 64.1388C71.1123 64.1855 66.9912 68.7901 66.9912 74.4573Z" fill="black"/>
<path d="M58.8634 101.386H59.3138C64.334 101.254 68.3765 96.6864 68.3765 91.0779C68.3765 85.4693 64.2131 80.759 59.0831 80.759C53.9531 80.759 49.8008 85.3707 49.8008 91.0779C49.8008 96.785 53.8323 101.265 58.8634 101.386Z" fill="black"/>
<path d="M75.886 51.6378C80.9061 51.5063 84.9376 46.9384 84.9376 41.3189C84.9376 35.6994 80.7743 31 75.6553 31C70.5363 31 66.3619 35.6227 66.3619 41.3189C66.3619 47.0151 70.4044 51.5063 75.4246 51.6378H75.886Z" fill="#00802F"/>
<path d="M49.1904 57.9241C49.1904 63.6313 53.3538 68.243 58.4728 68.243C63.5918 68.243 67.7551 63.6313 67.7551 57.9241C67.7551 52.246 63.6341 47.6522 58.551 47.6056C58.5249 47.6053 58.4989 47.6052 58.4728 47.6052C58.4468 47.6052 58.4207 47.6053 58.3947 47.6056C53.3115 47.6523 49.1904 52.2569 49.1904 57.9241Z" fill="#00802F"/>
<path d="M41.0626 84.8526H41.513C46.5332 84.7211 50.5757 80.1532 50.5757 74.5447C50.5757 68.9361 46.4124 64.2258 41.2823 64.2258C36.1523 64.2258 32 68.8375 32 74.5447C32 80.2518 36.0315 84.7321 41.0626 84.8526Z" fill="#00802F"/>
<path d="M58.886 34.6378C63.9061 34.5063 67.9376 29.9384 67.9376 24.3189C67.9376 18.6994 63.7743 14 58.6553 14C53.5363 14 49.3619 18.6227 49.3619 24.3189C49.3619 30.0151 53.4044 34.5063 58.4246 34.6378H58.886Z" fill="#C00002"/>
<path d="M32.1904 40.9241C32.1904 46.6313 36.3538 51.243 41.4728 51.243C46.5918 51.243 50.7551 46.6313 50.7551 40.9241C50.7551 35.246 46.6341 30.6522 41.551 30.6056C41.5249 30.6053 41.4989 30.6052 41.4728 30.6052C41.4468 30.6052 41.4207 30.6053 41.3947 30.6056C36.3115 30.6523 32.1904 35.2569 32.1904 40.9241Z" fill="#C00002"/>
<path d="M24.0626 67.8526H24.513C29.5332 67.7212 33.5757 63.1532 33.5757 57.5447C33.5757 51.9361 29.4124 47.2258 24.2823 47.2258C19.1523 47.2258 15 51.8375 15 57.5447C15 63.2518 19.0315 67.7321 24.0626 67.8526Z" fill="#C00002"/>
</svg>
