<svg width="131" height="133" viewBox="0 0 131 133" fill="none" xmlns="http://www.w3.org/2000/svg">
<rect width="131" height="133" rx="8" fill="white"/>
<g clip-path="url(#clip0_272_1986)">
<rect width="73" height="108" transform="translate(30 15)" fill="white"/>
<mask id="mask0_272_1986" style="mask-type:luminance" maskUnits="userSpaceOnUse" x="58" y="14" width="17" height="19">
<path d="M66.3106 32.3695H66.6871C70.884 32.2589 74.2635 28.4139 74.2635 23.6838C74.2635 18.9537 70.7829 14.998 66.4942 14.998C62.2055 14.998 58.7341 18.8891 58.7341 23.6838C58.7341 28.4785 62.1045 32.2589 66.3106 32.3695Z" fill="white"/>
</mask>
<g mask="url(#mask0_272_1986)">
<mask id="mask1_272_1986" style="mask-type:luminance" maskUnits="userSpaceOnUse" x="58" y="14" width="17" height="19">
<path d="M74.2655 14.998H58.7361V32.3695H74.2655V14.998Z" fill="white"/>
</mask>
<g mask="url(#mask1_272_1986)">
<rect x="58.5336" y="14.9443" width="15.8692" height="17.4821" fill="#C00002"/>
</g>
</g>
<mask id="mask2_272_1986" style="mask-type:luminance" maskUnits="userSpaceOnUse" x="44" y="28" width="16" height="19">
<path d="M51.9468 46.35H52.3233C56.5202 46.2393 59.8906 42.3944 59.8906 37.6643C59.8906 32.9341 56.41 28.9785 52.1305 28.9785C47.851 28.9785 44.4714 32.7497 44.3612 37.4337V37.8855C44.4714 42.505 47.805 46.2301 51.9376 46.3408" fill="white"/>
</mask>
<g mask="url(#mask2_272_1986)">
<mask id="mask3_272_1986" style="mask-type:luminance" maskUnits="userSpaceOnUse" x="44" y="28" width="16" height="19">
<path d="M59.8876 28.9746H44.3674V46.3461H59.8876V28.9746Z" fill="white"/>
</mask>
<g mask="url(#mask3_272_1986)">
<rect x="44.2022" y="28.8828" width="15.8692" height="17.4821" fill="#C00002"/>
</g>
</g>
<mask id="mask4_272_1986" style="mask-type:luminance" maskUnits="userSpaceOnUse" x="29" y="42" width="17" height="19">
<path d="M37.574 60.3275H37.9505C42.1474 60.2169 45.5269 56.3719 45.5269 51.6418C45.5269 46.9117 42.0464 42.9561 37.7668 42.9561C33.4873 42.9561 30.1078 46.7273 29.9976 51.4205V51.8723C30.1078 56.4918 33.4414 60.2169 37.574 60.3275Z" fill="white"/>
</mask>
<g mask="url(#mask4_272_1986)">
<mask id="mask5_272_1986" style="mask-type:luminance" maskUnits="userSpaceOnUse" x="29" y="42" width="17" height="19">
<path d="M45.525 42.9541H29.9957V60.3256H45.525V42.9541Z" fill="white"/>
</mask>
<g mask="url(#mask5_272_1986)">
<rect x="29.8758" y="42.8271" width="15.6488" height="17.7034" fill="#C00002"/>
</g>
</g>
<mask id="mask6_272_1986" style="mask-type:luminance" maskUnits="userSpaceOnUse" x="73" y="28" width="16" height="19">
<path d="M80.6719 46.35H81.0577C85.2545 46.2393 88.6341 42.3944 88.6341 37.6643C88.6341 32.9341 85.1535 28.9785 80.874 28.9785C76.5945 28.9785 73.1139 32.8696 73.1139 37.6643C73.1139 42.4589 76.4843 46.2393 80.6903 46.35" fill="white"/>
</mask>
<g mask="url(#mask6_272_1986)">
<mask id="mask7_272_1986" style="mask-type:luminance" maskUnits="userSpaceOnUse" x="73" y="28" width="16" height="19">
<path d="M88.6329 28.9746H73.1035V46.3461H88.6329V28.9746Z" fill="white"/>
</mask>
<g mask="url(#mask7_272_1986)">
<rect x="73.0746" y="28.8828" width="15.6488" height="17.4821" fill="#00812F"/>
</g>
</g>
<mask id="mask8_272_1986" style="mask-type:luminance" maskUnits="userSpaceOnUse" x="58" y="42" width="17" height="19">
<path d="M66.3106 60.3275H66.6871C70.884 60.2169 74.2635 56.3719 74.2635 51.6418C74.2635 46.9117 70.7829 42.9561 66.4942 42.9561C62.2055 42.9561 58.7341 46.8471 58.7341 51.6418C58.7341 56.4365 62.1045 60.2169 66.3106 60.3275Z" fill="white"/>
</mask>
<g mask="url(#mask8_272_1986)">
<mask id="mask9_272_1986" style="mask-type:luminance" maskUnits="userSpaceOnUse" x="58" y="42" width="17" height="19">
<path d="M74.2616 42.9521H58.7322V60.3236H74.2616V42.9521Z" fill="white"/>
</mask>
<g mask="url(#mask9_272_1986)">
<rect x="58.5276" y="42.8252" width="15.8692" height="17.7034" fill="#00812F"/>
</g>
</g>
<mask id="mask10_272_1986" style="mask-type:luminance" maskUnits="userSpaceOnUse" x="44" y="56" width="16" height="19">
<path d="M44.3716 65.4V65.8518C44.4818 70.545 47.9164 74.307 52.1409 74.307C56.3653 74.307 59.901 70.4252 59.901 65.6213C59.901 60.8174 56.4204 56.9355 52.1409 56.9355C47.8613 56.9355 44.4818 60.7067 44.3716 65.3908V65.4Z" fill="white"/>
</mask>
<g mask="url(#mask10_272_1986)">
<mask id="mask11_272_1986" style="mask-type:luminance" maskUnits="userSpaceOnUse" x="44" y="56" width="16" height="19">
<path d="M59.8957 56.9375H44.3755V74.309H59.8957V56.9375Z" fill="white"/>
</mask>
<g mask="url(#mask11_272_1986)">
<rect x="44.2084" y="56.7715" width="15.8692" height="17.7034" fill="#00812F"/>
</g>
</g>
<mask id="mask12_272_1986" style="mask-type:luminance" maskUnits="userSpaceOnUse" x="87" y="42" width="16" height="19">
<path d="M95.0476 60.3295H95.4242C99.621 60.2188 102.991 56.3739 102.991 51.6437C102.991 46.9136 99.5108 42.958 95.2313 42.958C90.9518 42.958 87.462 46.8491 87.462 51.6437C87.462 56.4384 90.8416 60.2188 95.0385 60.3295H95.0476Z" fill="white"/>
</mask>
<g mask="url(#mask12_272_1986)">
<mask id="mask13_272_1986" style="mask-type:luminance" maskUnits="userSpaceOnUse" x="87" y="42" width="16" height="19">
<path d="M102.998 42.9561H87.4683V60.3275H102.998V42.9561Z" fill="white"/>
</mask>
<g mask="url(#mask13_272_1986)">
<rect x="87.4022" y="42.8291" width="15.6488" height="17.7034" fill="black"/>
</g>
</g>
<mask id="mask14_272_1986" style="mask-type:luminance" maskUnits="userSpaceOnUse" x="73" y="56" width="16" height="19">
<path d="M73.1074 65.6203C73.1074 70.4242 76.588 74.306 80.8675 74.306C85.1471 74.306 88.6276 70.4242 88.6276 65.6203C88.6276 60.8164 85.1471 56.9346 80.8675 56.9346C76.588 56.9346 73.1074 60.8256 73.1074 65.6203Z" fill="white"/>
</mask>
<g mask="url(#mask14_272_1986)">
<mask id="mask15_272_1986" style="mask-type:luminance" maskUnits="userSpaceOnUse" x="73" y="56" width="16" height="19">
<path d="M88.6368 56.9365H73.1074V74.308H88.6368V56.9365Z" fill="white"/>
</mask>
<g mask="url(#mask15_272_1986)">
<rect x="73.0804" y="56.7705" width="15.6488" height="17.7034" fill="black"/>
</g>
</g>
<mask id="mask16_272_1986" style="mask-type:luminance" maskUnits="userSpaceOnUse" x="58" y="70" width="17" height="19">
<path d="M66.3106 88.2841H66.6871C70.884 88.1735 74.2635 84.3285 74.2635 79.6076C74.2635 74.8867 70.7829 70.9219 66.4942 70.9219C62.2055 70.9219 58.7341 74.8037 58.7341 79.6076C58.7341 84.4115 62.1045 88.1827 66.3106 88.2841Z" fill="white"/>
</mask>
<g mask="url(#mask16_272_1986)">
<mask id="mask17_272_1986" style="mask-type:luminance" maskUnits="userSpaceOnUse" x="58" y="70" width="17" height="19">
<path d="M74.2616 70.9219H58.7322V88.2841H74.2616V70.9219Z" fill="white"/>
</mask>
<g mask="url(#mask17_272_1986)">
<rect x="58.5276" y="70.71" width="15.8692" height="17.7034" fill="black"/>
</g>
</g>
<path d="M93.3112 110.192H93.3347V110.169V106.096H95.0285L96.9608 110.179L96.9672 110.192H96.9821H99.6677H99.7056L99.6887 110.159L97.5231 105.798C98.1934 105.539 98.693 105.129 99.0205 104.565C99.3619 103.995 99.5322 103.33 99.5322 102.569C99.5322 102.033 99.4524 101.545 99.2925 101.105C99.1326 100.665 98.9033 100.289 98.6043 99.977C98.3159 99.6544 97.9634 99.4072 97.5472 99.2353C97.1308 99.0633 96.6669 98.9775 96.1557 98.9775H90.8958H90.8723V99.001V110.169V110.192H90.8958H93.3112ZM96.6798 101.418L96.6798 101.418L96.6808 101.419C96.886 101.594 96.9904 101.859 96.9904 102.217V102.921C96.9904 103.279 96.886 103.549 96.6803 103.736C96.4845 103.912 96.2101 104.001 95.8538 104.001H93.3347V101.136H95.8538C96.2098 101.136 96.4841 101.231 96.6798 101.418Z" fill="black" stroke="black" stroke-width="0.0469734"/>
<path d="M81.2191 110.169V110.192H81.2426H88.7909H88.8143V110.169V108.009V107.985H88.7909H83.6815V105.616H88.0599H88.0833V105.593V103.449V103.425H88.0599H83.6815V101.184H88.7909H88.8143V101.161V99.001V98.9775H88.7909H81.2426H81.2191V99.001V110.169Z" fill="black" stroke="black" stroke-width="0.0469734"/>
<path d="M71.5659 110.169V110.192H71.5894H79.1377H79.1611V110.169V108.009V107.985H79.1377H74.0283V105.616H78.4067H78.4302V105.593V103.449V103.425H78.4067H74.0283V101.184H79.1377H79.1611V101.161V99.001V98.9775H79.1377H71.5894H71.5659V99.001V110.169Z" fill="black" stroke="black" stroke-width="0.0469734"/>
<path d="M60.9671 98.9775H60.9906H66.3777C67.3039 98.9775 68.0257 99.2402 68.5398 99.7685C69.0639 100.296 69.3252 100.996 69.3252 101.865C69.3252 102.293 69.2667 102.659 69.1489 102.961C69.042 103.262 68.8922 103.511 68.6988 103.705M60.9671 98.9775L68.6819 103.689M60.9671 98.9775V99.001V110.169V110.192H60.9906H66.8703C67.2866 110.192 67.6714 110.112 68.0243 109.95L68.0243 109.95L68.0248 109.95C68.3771 109.778 68.6816 109.547 68.9379 109.257C69.1942 108.966 69.3917 108.628 69.5303 108.241M60.9671 98.9775L69.5303 108.241M68.6988 103.705C68.6987 103.705 68.6987 103.705 68.6986 103.706L68.6819 103.689M68.6988 103.705C68.6989 103.705 68.699 103.705 68.6991 103.705L68.6819 103.689M68.6988 103.705C68.5162 103.9 68.2961 104.046 68.0387 104.143L68.0381 104.143L68.0381 104.143C67.7985 104.227 67.5388 104.275 67.2593 104.288M68.6819 103.689C68.5018 103.881 68.2846 104.025 68.0304 104.121C67.7867 104.206 67.5219 104.254 67.2358 104.265M67.2593 104.288V104.265H67.2358M67.2593 104.288C67.2518 104.288 67.2443 104.288 67.2367 104.288L67.2358 104.265M67.2593 104.288V104.338M67.2358 104.265V104.337C67.2436 104.337 67.2515 104.338 67.2593 104.338M67.2593 104.338C67.5198 104.34 67.7899 104.389 68.0695 104.483C68.3692 104.58 68.642 104.736 68.8879 104.951C69.1343 105.156 69.3374 105.426 69.4975 105.759C69.6691 106.093 69.7542 106.502 69.7542 106.985C69.7542 107.425 69.6796 107.844 69.5303 108.241M67.2593 104.338V104.361H67.2358M67.2358 104.361C67.5007 104.361 67.7761 104.409 68.0622 104.505C68.3588 104.601 68.6289 104.756 68.8726 104.969C69.1163 105.172 69.3176 105.438 69.4765 105.769C69.646 106.1 69.7307 106.505 69.7307 106.985C69.7307 107.422 69.6566 107.838 69.5083 108.233M67.2358 104.361L66.8703 110.169C67.2835 110.169 67.6649 110.089 68.0145 109.929C68.3641 109.758 68.666 109.529 68.9203 109.241C69.1745 108.953 69.3705 108.617 69.5083 108.233M67.2358 104.361L69.5303 108.241M69.5083 108.233L69.5302 108.241C69.5303 108.241 69.5303 108.241 69.5303 108.241M69.5083 108.233L69.5304 108.241C69.5304 108.241 69.5303 108.241 69.5303 108.241M66.9172 105.85L66.9172 105.85L66.9182 105.85C67.1027 106.016 67.1964 106.254 67.1964 106.569V107.113C67.1964 107.428 67.1028 107.672 66.9177 107.848C66.7431 108.013 66.5006 108.097 66.187 108.097H63.4295V105.584H66.187C66.5002 105.584 66.7426 105.674 66.9172 105.85ZM65.8056 103.553H63.4295V101.072H65.8056C66.1188 101.072 66.3612 101.162 66.5358 101.338C66.7105 101.513 66.7992 101.758 66.7992 102.073V102.553C66.7992 102.868 66.7105 103.113 66.5358 103.288C66.3612 103.464 66.1188 103.553 65.8056 103.553Z" fill="black" stroke="black" stroke-width="0.0469734"/>
<path d="M49.9103 98.9775H49.8868V99.001V110.169V110.192H49.9103H54.0897C54.8232 110.192 55.4935 110.075 56.1004 109.839C56.7075 109.603 57.2244 109.254 57.6506 108.793L57.6508 108.793C58.077 108.321 58.407 107.736 58.6409 107.04L58.6409 107.04C58.875 106.333 58.9917 105.515 58.9917 104.585C58.9917 103.655 58.875 102.842 58.6409 102.146C58.407 101.439 58.0771 100.855 57.6507 100.393C57.2245 99.9211 56.7076 99.567 56.1004 99.3311C55.4935 99.0952 54.8232 98.9775 54.0897 98.9775H49.9103ZM55.7736 107.384C55.3658 107.784 54.8055 107.985 54.0897 107.985H52.3492V101.184H54.0897C54.8055 101.184 55.3658 101.386 55.7736 101.786C56.1803 102.185 56.3863 102.828 56.3863 103.721V105.449C56.3863 106.342 56.1803 106.985 55.7736 107.384Z" fill="black" stroke="black" stroke-width="0.0469734"/>
<path d="M45.8435 110.176L45.8485 110.192H45.866H48.3768H48.4091L48.3992 110.162L44.7919 98.9938L44.7866 98.9775H44.7695H41.782H41.765L41.7597 98.9937L38.1047 110.162L38.0946 110.192H38.127H40.5743H40.5917L40.5968 110.176L41.3863 107.536H45.054L45.8435 110.176ZM41.9721 105.425L43.1822 101.232H43.2264L44.4521 105.425H41.9721Z" fill="black" stroke="black" stroke-width="0.0469734"/>
<path d="M35.4164 110.192H35.4399V110.169V101.184H38.4199H38.4434V101.161V99.001V98.9775H38.4199H29.9976H29.9741V99.001V101.161V101.184H29.9976H32.9775V110.169V110.192H33.001H35.4164Z" fill="black" stroke="black" stroke-width="0.0469734"/>
</g>
<defs>
<clipPath id="clip0_272_1986">
<rect width="73" height="108" fill="white" transform="translate(30 15)"/>
</clipPath>
</defs>
</svg>
