<svg width="298" height="236" viewBox="0 0 298 236" fill="none" xmlns="http://www.w3.org/2000/svg">
<path d="M0 220C0 228.837 7.16344 236 16 236H282C290.837 236 298 228.837 298 220V16C298 7.16344 290.837 0 282 0H16C7.16344 0 0 7.16344 0 16V220Z" fill="#E30A17"/>
<path d="M174.83 118L228 100.368L195.137 146.532V89.468L228 135.632L174.83 118ZM178.454 150.084C171.644 161.069 161.523 169.499 149.614 174.106C137.704 178.713 124.651 179.247 112.419 175.628C100.187 172.01 89.4365 164.434 81.7864 154.041C74.1363 143.648 70 131 70 118C70 105 74.1363 92.3523 81.7864 81.9593C89.4365 71.5662 100.187 63.9903 112.419 60.3716C124.651 56.7529 137.704 57.2871 149.614 61.894C161.523 66.5008 171.644 74.931 178.454 85.916C172.095 78.6927 163.738 73.6083 154.488 71.3343C145.238 69.0604 135.53 69.7039 126.646 73.1799C117.762 76.6559 110.119 82.8008 104.728 90.803C99.3375 98.8053 96.4515 108.288 96.4515 118C96.4515 127.712 99.3375 137.195 104.728 145.197C110.119 153.199 117.762 159.344 126.646 162.82C135.53 166.296 145.238 166.94 154.488 164.666C163.738 162.392 172.095 157.307 178.454 150.084Z" fill="white"/>
</svg>
