<svg width="37" height="38" viewBox="0 0 37 38" fill="none" xmlns="http://www.w3.org/2000/svg">
<path d="M18.6247 35.5384C27.9675 35.5384 35.5413 27.9646 35.5413 18.6217C35.5413 9.27893 27.9675 1.70508 18.6247 1.70508C9.28186 1.70508 1.70801 9.27893 1.70801 18.6217C1.70801 27.9646 9.28186 35.5384 18.6247 35.5384Z" stroke="white" stroke-width="2.91667"/>
<path d="M3.16672 28.2465L0.483398 37.7548L10.3417 35.0132L10.8667 31.9798L4.45002 34.0215L6.1417 27.8965L3.16672 28.2465Z" fill="white"/>
<path d="M4.33301 34.0789C4.33301 34.0206 6.37467 27.2539 6.37467 27.2539L11.2747 31.8622L4.33301 34.0789Z" fill="#068B1D"/>
<path d="M11.315 10.2412C10.7194 10.6544 10.2116 11.1817 9.82112 11.7925C9.43062 12.4033 9.16513 13.0854 9.03998 13.7995C8.74831 16.0745 10.1483 18.4078 10.1483 18.4078C11.5684 20.5207 13.2545 22.442 15.165 24.1245C16.8362 25.4469 18.7336 26.4549 20.765 27.0995C21.9499 27.5726 23.2461 27.6941 24.4983 27.4495C25.6082 27.1448 26.5901 26.4902 27.2983 25.5828C27.4642 25.17 27.5817 24.7394 27.6483 24.2995C27.7151 23.9135 27.7151 23.5188 27.6483 23.1328C27.59 22.7245 23.39 20.7995 22.9817 20.9161C22.5733 21.0328 22.2233 21.7912 21.7566 22.4328C21.2899 23.0745 21.115 23.3662 20.6483 23.3662C20.1817 23.3662 18.1399 22.5495 16.2149 20.7995C15.1154 19.8461 14.2561 18.647 13.7066 17.2995C13.7066 17.2995 14.0567 16.8911 14.5233 16.2495C14.8864 15.8516 15.1467 15.371 15.2816 14.8495C15.2816 14.5578 13.6483 10.4162 13.2399 10.2412C12.6014 10.1514 11.9535 10.1514 11.315 10.2412Z" fill="white"/>
</svg>
